<?xml version="1.0" encoding="UTF-8" standalone="no"?>
<!-- Created with Inkscape (http://www.inkscape.org/) -->

<svg
   version="1.1"
   id="svg1"
   width="89mm"
   height="75mm"
   viewBox="0 0 336.37795 283.46456"
   sodipodi:docname="graph.svg"
   inkscape:version="1.3 (1:1.3+202307231459+0e150ed6c4)"
   xmlns:inkscape="http://www.inkscape.org/namespaces/inkscape"
   xmlns:sodipodi="http://sodipodi.sourceforge.net/DTD/sodipodi-0.dtd"
   xmlns="http://www.w3.org/2000/svg"
   xmlns:svg="http://www.w3.org/2000/svg">
  <sodipodi:namedview
     id="namedview1"
     pagecolor="#ffffff"
     bordercolor="#000000"
     borderopacity="0.25"
     inkscape:showpageshadow="2"
     inkscape:pageopacity="0.0"
     inkscape:pagecheckerboard="0"
     inkscape:deskcolor="#d1d1d1"
     showgrid="false"
     inkscape:zoom="1.183642"
     inkscape:cx="217.97131"
     inkscape:cy="283.44719"
     inkscape:window-width="1920"
     inkscape:window-height="1011"
     inkscape:window-x="0"
     inkscape:window-y="0"
     inkscape:window-maximized="1"
     inkscape:current-layer="g1"
     inkscape:document-units="mm" />
  <defs
     id="defs1">
    <clipPath
       clipPathUnits="userSpaceOnUse"
       id="clipPath1407">
      <path
         id="path2260"
         d="m 9.309,-428.181 h 261.223 v 172.643 H 9.309 Z" />
    </clipPath>
    <clipPath
       clipPathUnits="userSpaceOnUse"
       id="clipPath1409">
      <path
         id="path2263"
         d="m -62.8573,-10.3352 h 261.227 v 172.643 h -261.227 z" />
    </clipPath>
    <clipPath
       clipPathUnits="userSpaceOnUse"
       id="clipPath5">
      <path
         id="path35"
         d="m 9.309,-428.181 h 261.223 v 172.643 H 9.309 Z" />
    </clipPath>
    <clipPath
       clipPathUnits="userSpaceOnUse"
       id="clipPath24">
      <path
         id="path64"
         d="m 9.309,-428.181 h 261.223 v 172.643 H 9.309 Z" />
    </clipPath>
    <clipPath
       clipPathUnits="userSpaceOnUse"
       id="clipPath32">
      <path
         id="path345"
         d="m 9.309,-428.181 h 261.223 v 172.643 H 9.309 Z" />
    </clipPath>
    <clipPath
       clipPathUnits="userSpaceOnUse"
       id="clipPath40">
      <path
         id="path1146"
         d="m 9.309,-428.181 h 261.223 v 172.643 H 9.309 Z" />
    </clipPath>
    <clipPath
       clipPathUnits="userSpaceOnUse"
       id="clipPath62">
      <path
         id="path1171"
         d="m 9.309,-428.181 h 261.223 v 172.643 H 9.309 Z" />
    </clipPath>
    <clipPath
       clipPathUnits="userSpaceOnUse"
       id="clipPath70">
      <path
         id="path1287"
         d="m 9.309,-428.181 h 261.223 v 172.643 H 9.309 Z" />
    </clipPath>
    <clipPath
       clipPathUnits="userSpaceOnUse"
       id="clipPath78">
      <path
         id="path1295"
         d="m 9.309,-428.181 h 261.223 v 172.643 H 9.309 Z" />
    </clipPath>
    <clipPath
       clipPathUnits="userSpaceOnUse"
       id="clipPath88">
      <path
         id="path1301"
         d="M -140.764,-131.389 H 120.459 V 41.258 h -261.223 z" />
    </clipPath>
    <clipPath
       clipPathUnits="userSpaceOnUse"
       id="clipPath99">
      <path
         id="path1308"
         d="m 9.309,-428.181 h 261.223 v 172.643 H 9.309 Z" />
    </clipPath>
    <clipPath
       clipPathUnits="userSpaceOnUse"
       id="clipPath111">
      <path
         id="path1314"
         d="m -76.0202,-75.1239 h 261.223 v 172.647 h -261.223 z" />
    </clipPath>
    <clipPath
       clipPathUnits="userSpaceOnUse"
       id="clipPath123">
      <path
         id="path1319"
         d="m 9.309,-428.181 h 261.223 v 172.643 H 9.309 Z" />
    </clipPath>
    <clipPath
       clipPathUnits="userSpaceOnUse"
       id="clipPath135">
      <path
         id="path1323"
         d="m -9.5183,-130.521 h 261.223 V 42.122 H -9.5183 Z" />
    </clipPath>
    <clipPath
       clipPathUnits="userSpaceOnUse"
       id="clipPath147">
      <path
         id="path1328"
         d="m 9.309,-428.181 h 261.223 v 172.643 H 9.309 Z" />
    </clipPath>
    <clipPath
       clipPathUnits="userSpaceOnUse"
       id="clipPath159">
      <path
         id="path1332"
         d="M -247.181,-170.358 H 14.042 V 2.289 h -261.223 z" />
    </clipPath>
  </defs>
  <g
     id="g1"
     inkscape:groupmode="layer"
     inkscape:label="1"
     transform="translate(-22.056211,-345.07309)">
    <g
       id="g2"
       transform="translate(3.8083201,28.935439)">
      <path
         d="m 75.094,-267 182.285,-156.089 1.277,-0.469"
         style="opacity:1;fill:none;stroke:#ebacb0;stroke-width:0.633705;stroke-linecap:butt;stroke-linejoin:round;stroke-miterlimit:1;stroke-dasharray:3.80224, 3.80224;stroke-dashoffset:0;stroke-opacity:1"
         transform="scale(1.33333,-1.33277)"
         clip-path="url(#clipPath5)"
         id="path1175"
         inkscape:export-filename="graph.svg"
         inkscape:export-xdpi="96"
         inkscape:export-ydpi="96" />
      <path
         d="m 152.246,-384.589 -3.492,3.029 -3.242,2.825 -3.035,2.638 -2.86,2.486 -2.711,2.348 -2.57,2.244 -2.477,2.145 -2.379,2.067 -2.304,2.005 -2.262,1.966 -2.211,1.922 -2.203,1.911 -2.187,1.907 -2.204,1.911 -2.23,1.939 -2.277,1.977 -2.336,2.028 -2.418,2.103 -2.512,2.184 -2.633,2.286 -2.769,2.404 -2.93,2.552 -3.117,2.708 -3.344,2.907 -2.043,1.774"
         style="opacity:1;fill:none;stroke:#959595;stroke-width:0.63312;stroke-linecap:butt;stroke-linejoin:round;stroke-miterlimit:1;stroke-dasharray:3.79872, 3.79872;stroke-dashoffset:0;stroke-opacity:1"
         transform="scale(1.33333,-1.33277)"
         clip-path="url(#clipPath24)"
         id="path1178" />
      <path
         d="m 152.246,-384.589 -5.754,0.043 -5.418,0.036 -5.125,0.027 -4.875,0.039 -4.64,0.027 -4.45,0.032 -4.265,0.027 -4.117,0.023 -3.989,0.032 -3.875,0.023 -3.781,0.024 -3.703,0.023 -3.652,0.024 -3.618,0.023 -7.179,0.047 -3.606,0.023 -3.633,0.024 -3.687,0.023 -3.75,0.031 -3.836,0.024 -3.938,0.023 -4.066,0.032 -4.215,0.023 -4.371,0.027 -4.566,0.032 -4.782,0.035 -5.023,0.031 -5.305,0.035 -5.621,0.035 -2.222,0.016"
         style="opacity:1;fill:none;stroke:#8cdbcf;stroke-width:0.63312;stroke-linecap:butt;stroke-linejoin:round;stroke-miterlimit:1;stroke-dasharray:none;stroke-opacity:1"
         transform="scale(1.33333,-1.33277)"
         clip-path="url(#clipPath32)"
         id="path1181" />
      <path
         d="m 152.246,-384.589 5.004,-1.832 4.703,-1.724 4.434,-1.622 4.199,-1.535 3.996,-1.462 3.809,-1.399 3.664,-1.34 3.527,-1.29 3.418,-1.254 3.32,-1.216 3.254,-1.188 3.196,-1.172 3.156,-1.161 3.133,-1.145 3.136,-1.149 3.149,-1.153 3.183,-1.168 3.239,-1.18 3.3,-1.208 3.391,-1.242 3.496,-1.286 3.625,-1.325 3.777,-1.383 3.946,-1.446 4.148,-1.513 4.367,-1.606 4.633,-1.696 4.93,-1.805 1.277,-0.469"
         style="opacity:1;fill:none;stroke:#8cdbcf;stroke-width:0.63312;stroke-linecap:butt;stroke-linejoin:round;stroke-miterlimit:1;stroke-dasharray:none;stroke-opacity:1"
         transform="scale(1.33333,-1.33277)"
         clip-path="url(#clipPath40)"
         id="path1184" />
      <path
         d="m 87.5,-328.323 -0.793,3.951 -0.734,3.646 -0.68,3.392 -0.633,3.17 -0.597,2.993 -0.575,2.841 -0.543,2.724 -0.527,2.63 -0.516,2.564 -0.5,2.512 -0.504,2.505 -0.503,2.502 -0.508,2.532 -0.516,2.595 -0.539,2.669 -0.551,2.767 -0.586,2.907 -0.613,3.064 -0.652,3.259 -0.703,3.49 -0.75,3.771 -0.465,2.302"
         style="opacity:1;fill:none;stroke:#8cdbcf;stroke-width:0.63312;stroke-linecap:butt;stroke-linejoin:round;stroke-miterlimit:1;stroke-dasharray:none;stroke-opacity:1"
         transform="scale(1.33333,-1.33277)"
         clip-path="url(#clipPath62)"
         id="path1187" />
      <path
         d="m 87.5,-328.323 -3.562,-2.977 -3.305,-2.763 -3.102,-2.591 -2.922,-2.439 -2.765,-2.313 -2.633,-2.196 -2.527,-2.111 -2.43,-2.028 -2.356,-1.973 -2.308,-1.923 -2.258,-1.892 -2.246,-1.871 -2.234,-1.868 -2.25,-1.876 -2.27,-1.907 -2.32,-1.935 -2.387,-1.985 -2.461,-2.055 -2.555,-2.142 -2.675,-2.231 -2.817,-2.353 -2.976,-2.485 -3.164,-2.646 -3.391,-2.829 -2.402,-2.013"
         style="opacity:1;fill:none;stroke:#8cdbcf;stroke-width:0.63312;stroke-linecap:butt;stroke-linejoin:round;stroke-miterlimit:1;stroke-dasharray:none;stroke-opacity:1"
         transform="scale(1.33333,-1.33277)"
         clip-path="url(#clipPath70)"
         id="path1190" />
      <path
         d="m 149.223,-389.055 h 6.047 l -0.055,0.008 0.207,0.003 0.203,0.043 0.188,0.071 0.179,0.105 0.156,0.129 0.137,0.157 0.113,0.172 0.079,0.187 0.05,0.203 0.02,0.2 v 6.377 l -0.02,0.207 -0.05,0.204 -0.079,0.187 -0.113,0.172 -0.137,0.156 -0.156,0.129 -0.179,0.102 -0.188,0.074 -0.203,0.043 -0.152,0.004 h -6.047 l 0.152,-0.004 -0.207,0.004 -0.203,-0.023 -0.199,-0.059 -0.184,-0.09 -0.172,-0.109 -0.148,-0.145 -0.125,-0.164 -0.094,-0.184 -0.063,-0.195 -0.031,-0.199 -0.008,-0.11 v -6.377 l 0.008,0.105 v -0.207 l 0.031,-0.199 0.063,-0.196 0.094,-0.183 0.125,-0.165 0.148,-0.144 0.172,-0.117 0.184,-0.082 0.199,-0.059 0.203,-0.023 z"
         style="opacity:1;fill:#5ecee9;fill-opacity:1;fill-rule:nonzero;stroke:#000000;stroke-width:0.313601;stroke-linecap:round;stroke-linejoin:round;stroke-miterlimit:10;stroke-dasharray:none;stroke-opacity:1"
         transform="scale(1.33333,-1.33277)"
         clip-path="url(#clipPath78)"
         id="path1193" />
      <text
         xml:space="preserve"
         transform="matrix(1.33333,0,0,1.33277,200.097,515.679)"
         clip-path="url(#clipPath88)"
         id="text1195"
         style="text-align:center;text-anchor:middle;opacity:1"
         x="2.1706293"
         y="0"><tspan
           style="font-variant:normal;font-weight:normal;font-size:6.50871px;font-family:'Nimbus Sans';text-align:center;writing-mode:lr-tb;text-anchor:middle;fill:#000000;fill-opacity:1;fill-rule:nonzero;stroke:none"
           x="2.1706293"
           y="0"
           id="tspan1195"
           sodipodi:role="line">A</tspan></text>
      <path
         d="m 84.477,-332.789 h 6.046 -0.05 l 0.207,0.004 0.199,0.043 0.191,0.078 0.176,0.097 0.16,0.133 0.137,0.153 0.113,0.172 0.082,0.187 0.047,0.203 0.016,0.208 v 6.377 l -0.016,0.204 -0.047,0.199 -0.082,0.187 -0.113,0.172 -0.137,0.157 -0.16,0.129 -0.176,0.105 -0.191,0.07 -0.199,0.043 -0.157,0.012 h -6.046 l 0.156,-0.012 -0.207,0.008 -0.203,-0.023 -0.2,-0.055 -0.183,-0.09 -0.172,-0.117 -0.148,-0.141 -0.125,-0.168 -0.094,-0.183 -0.067,-0.196 -0.027,-0.199 -0.008,-0.102 v -6.377 l 0.008,0.101 v -0.207 l 0.027,-0.203 0.067,-0.196 0.094,-0.183 0.125,-0.16 0.148,-0.149 0.172,-0.109 0.183,-0.09 0.2,-0.059 0.203,-0.023 z"
         style="opacity:1;fill:#e4bf97;fill-opacity:1;fill-rule:nonzero;stroke:#000000;stroke-width:0.313601;stroke-linecap:round;stroke-linejoin:round;stroke-miterlimit:10;stroke-dasharray:none;stroke-opacity:1"
         transform="scale(1.33333,-1.33277)"
         clip-path="url(#clipPath99)"
         id="path1198" />
      <text
         xml:space="preserve"
         transform="matrix(1.33333,0,0,1.33277,113.772,440.691)"
         clip-path="url(#clipPath111)"
         id="text1200"
         style="text-align:center;text-anchor:middle;opacity:1"
         x="2.1706293"
         y="0"><tspan
           style="font-variant:normal;font-weight:normal;font-size:6.50871px;font-family:'Nimbus Sans';text-align:center;writing-mode:lr-tb;text-anchor:middle;fill:#000000;fill-opacity:1;fill-rule:nonzero;stroke:none"
           x="2.1706293"
           y="0"
           id="tspan1200"
           sodipodi:role="line">B</tspan></text>
      <path
         d="m 71.313,-268.004 h 6.402 -0.055 l 0.207,0.012 0.203,0.039 0.196,0.074 0.175,0.098 0.161,0.133 0.136,0.152 0.106,0.176 0.082,0.191 0.047,0.196 0.019,0.207 v 6.378 l -0.019,0.207 -0.047,0.195 -0.082,0.188 -0.106,0.179 -0.136,0.153 -0.161,0.133 -0.175,0.097 -0.196,0.071 -0.203,0.043 -0.152,0.011 h -6.402 l 0.152,-0.011 -0.207,0.011 -0.199,-0.023 -0.204,-0.059 -0.183,-0.09 -0.172,-0.117 -0.148,-0.14 -0.122,-0.168 -0.097,-0.176 -0.063,-0.196 -0.035,-0.207 v -6.479 0.101 -0.203 l 0.035,-0.207 0.063,-0.195 0.097,-0.176 0.122,-0.168 0.148,-0.141 0.172,-0.117 0.183,-0.09 0.204,-0.059 0.199,-0.023 z"
         style="opacity:1;fill:#98c2ec;fill-opacity:1;fill-rule:nonzero;stroke:#000000;stroke-width:0.313601;stroke-linecap:round;stroke-linejoin:round;stroke-miterlimit:10;stroke-dasharray:none;stroke-opacity:1"
         transform="scale(1.33333,-1.33277)"
         clip-path="url(#clipPath1407)"
         id="path1203" />
      <text
         xml:space="preserve"
         transform="matrix(1.33333,0,0,1.33277,96.2165,354.348)"
         clip-path="url(#clipPath1409)"
         id="text1205"
         style="text-align:center;text-anchor:middle;opacity:1"
         x="2.3493965"
         y="0"><tspan
           style="font-variant:normal;font-weight:normal;font-size:6.50871px;font-family:'Nimbus Sans';text-align:center;writing-mode:lr-tb;text-anchor:middle;fill:#000000;fill-opacity:1;fill-rule:nonzero;stroke:none"
           x="2.3493965"
           y="0"
           id="tspan1205"
           sodipodi:role="line">C</tspan></text>
      <path
         d="m 17.977,-388.192 h 6.406 -0.051 l 0.207,0.008 0.199,0.039 0.192,0.078 0.175,0.102 0.161,0.129 0.136,0.152 0.114,0.172 0.074,0.192 0.055,0.199 0.019,0.207 v 6.378 l -0.019,0.203 -0.055,0.199 -0.074,0.192 -0.114,0.172 -0.136,0.152 -0.161,0.129 -0.175,0.11 -0.192,0.07 -0.199,0.039 -0.156,0.012 h -6.406 l 0.152,-0.012 -0.199,0.008 -0.207,-0.024 -0.196,-0.054 -0.191,-0.086 -0.164,-0.121 -0.149,-0.141 -0.125,-0.164 -0.093,-0.184 -0.067,-0.195 -0.035,-0.203 -0.004,-0.102 v -6.378 l 0.004,0.102 v -0.207 l 0.035,-0.203 0.067,-0.196 0.093,-0.18 0.125,-0.16 0.149,-0.144 0.164,-0.118 0.191,-0.09 0.196,-0.058 0.207,-0.024 z"
         style="opacity:1;fill:#bbd7a5;fill-opacity:1;fill-rule:nonzero;stroke:#000000;stroke-width:0.313601;stroke-linecap:round;stroke-linejoin:round;stroke-miterlimit:10;stroke-dasharray:none;stroke-opacity:1"
         transform="scale(1.33333,-1.33277)"
         clip-path="url(#clipPath123)"
         id="path1208" />
      <text
         xml:space="preserve"
         transform="matrix(1.33333,0,0,1.33277,25.1031,514.528)"
         clip-path="url(#clipPath135)"
         id="text1210"
         style="text-align:center;text-anchor:middle;opacity:1"
         x="2.3493965"
         y="0"><tspan
           style="font-variant:normal;font-weight:normal;font-size:6.50871px;font-family:'Nimbus Sans';text-align:center;writing-mode:lr-tb;text-anchor:middle;fill:#000000;fill-opacity:1;fill-rule:nonzero;stroke:none"
           x="2.3493965"
           y="0"
           id="tspan1210"
           sodipodi:role="line">D</tspan></text>
      <path
         d="m 255.637,-428.025 h 6.043 -0.047 l 0.199,0.012 0.203,0.043 0.195,0.07 0.176,0.102 0.16,0.129 0.137,0.152 0.113,0.18 0.079,0.187 0.05,0.196 0.012,0.207 v 6.378 l -0.012,0.207 -0.05,0.195 -0.079,0.192 -0.113,0.176 -0.137,0.156 -0.16,0.129 -0.176,0.101 -0.195,0.071 -0.203,0.039 -0.152,0.012 h -6.043 l 0.156,-0.012 -0.207,0.012 -0.207,-0.024 -0.195,-0.059 -0.184,-0.085 -0.172,-0.122 -0.148,-0.14 -0.125,-0.164 -0.094,-0.18 -0.066,-0.196 -0.036,-0.207 v -6.479 0.102 -0.204 l 0.036,-0.207 0.066,-0.195 0.094,-0.176 0.125,-0.164 0.148,-0.145 0.172,-0.117 0.184,-0.09 0.195,-0.058 0.207,-0.024 z"
         style="opacity:1;fill:#ccb5e9;fill-opacity:1;fill-rule:nonzero;stroke:#000000;stroke-width:0.313601;stroke-linecap:round;stroke-linejoin:round;stroke-miterlimit:10;stroke-dasharray:none;stroke-opacity:1"
         transform="scale(1.33333,-1.33277)"
         clip-path="url(#clipPath147)"
         id="path1213" />
      <text
         xml:space="preserve"
         transform="matrix(1.33333,0,0,1.33277,341.987,567.616)"
         clip-path="url(#clipPath159)"
         id="text1215"
         style="text-align:center;text-anchor:middle;opacity:1"
         x="2.1706293"
         y="0"><tspan
           style="font-variant:normal;font-weight:normal;font-size:6.50871px;font-family:'Nimbus Sans';text-align:center;writing-mode:lr-tb;text-anchor:middle;fill:#000000;fill-opacity:1;fill-rule:nonzero;stroke:none"
           x="2.1706293"
           y="0"
           id="tspan1215"
           sodipodi:role="line">E</tspan></text>
    </g>
  </g>
</svg>
