<?xml version="1.0" encoding="UTF-8" standalone="no"?>
<!-- Created with Inkscape (http://www.inkscape.org/) -->

<svg
   version="1.1"
   id="svg1"
   width="89mm"
   height="75mm"
   viewBox="0 0 336.37795 283.46456"
   sodipodi:docname="precision_mat.svg"
   inkscape:version="1.3 (1:1.3+202307231459+0e150ed6c4)"
   xmlns:inkscape="http://www.inkscape.org/namespaces/inkscape"
   xmlns:sodipodi="http://sodipodi.sourceforge.net/DTD/sodipodi-0.dtd"
   xmlns="http://www.w3.org/2000/svg"
   xmlns:svg="http://www.w3.org/2000/svg">
  <sodipodi:namedview
     id="namedview1"
     pagecolor="#ffffff"
     bordercolor="#000000"
     borderopacity="0.25"
     inkscape:showpageshadow="2"
     inkscape:pageopacity="0.0"
     inkscape:pagecheckerboard="0"
     inkscape:deskcolor="#d1d1d1"
     showgrid="false"
     inkscape:zoom="1.2334709"
     inkscape:cx="192.95145"
     inkscape:cy="62.830829"
     inkscape:window-width="1920"
     inkscape:window-height="1011"
     inkscape:window-x="0"
     inkscape:window-y="0"
     inkscape:window-maximized="1"
     inkscape:current-layer="g1"
     inkscape:document-units="mm" />
  <defs
     id="defs1" />
  <g
     id="g1"
     inkscape:groupmode="layer"
     inkscape:label="1"
     transform="translate(-399.14532,-395.5)">
    <g
       id="g5"
       transform="translate(0,-0.90420437)">
      <g
         id="g3"
         transform="translate(117.62828)">
        <path
           id="path1217"
           d="m 411.43002,458.27333 -2.32266,2.364 0.30133,0.308 2.02133,-1.776 1.97867,1.776 0.324,-0.308 z m 5.45334,13.59866 h -0.42667 c -0.084,0.448 -0.14133,0.85467 -0.308,1.26 -0.0773,0.28667 -0.14,0.432 -1.14,0.432 h -1.38533 c 0.224,-0.97866 0.75466,-1.81733 1.52533,-2.95733 0.81733,-1.224 1.532,-2.428 1.532,-3.792 0,-2.40667 -2.324,-4.344 -5.26133,-4.344 -2.97867,0 -5.28134,1.98 -5.28134,4.344 0,1.364 0.69334,2.568 1.51067,3.792 0.77067,1.14 1.32267,1.97867 1.54667,2.95733 h -1.38534 c -1,0 -1.06266,-0.14533 -1.14,-0.41066 -0.14666,-0.38534 -0.224,-0.83334 -0.308,-1.28134 h -0.448 l 0.568,2.812 h 2.776 c 0.38534,0 0.448,0 0.448,-0.36933 0,-1.20267 -0.552,-2.72933 -0.93733,-3.84933 -0.36933,-1 -0.86,-2.364 -0.86,-3.672 0,-2.77067 1.91733,-3.952 3.49067,-3.952 1.672,0 3.50533,1.26 3.50533,3.952 0,1.308 -0.46933,2.63066 -0.97467,4.03733 -0.26533,0.73333 -0.81733,2.28133 -0.81733,3.484 0,0.36933 0.0627,0.36933 0.448,0.36933 h 2.75467 z m 6.52533,6.96934 c 0,-0.0573 0,-0.0787 -0.28,-0.38667 -2.16667,-2.18133 -2.73467,-5.44267 -2.73467,-8.11333 0,-2.996 0.672,-6.01067 2.79067,-8.19334 0.224,-0.20266 0.224,-0.224 0.224,-0.28666 0,-0.12 -0.056,-0.18267 -0.16133,-0.18267 -0.18134,0 -1.73334,1.18267 -2.75467,3.38133 -0.896,1.916 -1.09867,3.83334 -1.09867,5.28134 0,1.364 0.20267,3.468 1.14,5.42133 1.04134,2.12 2.532,3.26533 2.71334,3.26533 0.10533,0 0.16133,-0.0627 0.16133,-0.18666 z"
           style="fill:#000000;fill-opacity:1;fill-rule:nonzero;stroke:none;stroke-width:1.33333" />
        <path
           id="path1218"
           d="m 430.60736,469.62666 c 0.71333,1.81867 1.54666,4.464 1.83333,4.876 0.26533,0.364 0.448,0.364 0.916,0.364 h 0.37067 c 0.18133,0 0.20266,-0.12 0.20266,-0.16133 0,-0.0627 -0.0413,-0.084 -0.0827,-0.16134 -0.18267,-0.188 -0.28667,-0.45333 -0.40667,-0.79733 l -3.532,-9.86933 c -0.364,-0.99467 -1.30133,-1.21867 -2.11867,-1.21867 -0.0787,0 -0.308,0 -0.308,0.18267 0,0.14 0.12534,0.18133 0.14667,0.18133 0.572,0.104 0.692,0.204 1.14,1.38533 l 1.672,4.70934 -4.792,4.74933 c -0.20267,0.20267 -0.30667,0.308 -0.30667,0.532 0,0.30667 0.244,0.50933 0.53067,0.50933 0.26533,0 0.42667,-0.18133 0.57333,-0.364 z"
           style="fill:#000000;fill-opacity:1;fill-rule:nonzero;stroke:none;stroke-width:1.33333" />
        <path
           id="path1219"
           d="m 451.26336,469.01733 c 0.26533,0 0.59333,0 0.59333,-0.348 0,-0.344 -0.328,-0.344 -0.572,-0.344 h -10.38 c -0.24533,0 -0.57333,0 -0.57333,0.344 0,0.348 0.328,0.348 0.59333,0.348 z m 0.0213,3.36533 c 0.244,0 0.56667,0 0.56667,-0.34933 0,-0.344 -0.32267,-0.344 -0.588,-0.344 h -10.33867 c -0.26533,0 -0.59333,0 -0.59333,0.344 0,0.34933 0.328,0.34933 0.57333,0.34933 z m 14.348,-3.24533 c 0,-1.38534 -0.0827,-2.77067 -0.69733,-4.05734 -0.792,-1.672 -2.21867,-1.932 -2.932,-1.932 -1.04134,0 -2.328,0.448 -3.02134,2.05734 -0.57333,1.20266 -0.65066,2.54666 -0.65066,3.932 0,1.308 0.0773,2.85466 0.776,4.18266 0.74933,1.40667 2.016,1.74934 2.87466,1.74934 0.93734,0 2.24,-0.364 3.016,-2.01467 0.552,-1.204 0.63467,-2.54667 0.63467,-3.91733 z m -3.65067,5.54666 c -0.67733,0 -1.71333,-0.42666 -2.02,-2.09866 -0.18266,-1.04134 -0.18266,-2.63067 -0.18266,-3.65067 0,-1.12 0,-2.26 0.14,-3.19867 0.328,-2.06133 1.60933,-2.20266 2.06266,-2.20266 0.568,0 1.71334,0.308 2.03734,2.016 0.16533,0.97866 0.16533,2.28666 0.16533,3.38533 0,1.30667 0,2.468 -0.18667,3.588 -0.26533,1.63067 -1.24533,2.16133 -2.016,2.16133 z"
           style="fill:#000000;fill-opacity:1;fill-rule:nonzero;stroke:none;stroke-width:1.33333" />
        <path
           id="path1220"
           d="m 469.64869,473.76799 c 0,-0.51066 -0.40667,-0.91733 -0.916,-0.91733 -0.49067,0 -0.91733,0.40667 -0.91733,0.91733 0,0.51067 0.42666,0.916 0.91733,0.916 0.50933,0 0.916,-0.40533 0.916,-0.916 z"
           style="fill:#000000;fill-opacity:1;fill-rule:nonzero;stroke:none;stroke-width:1.33333" />
        <path
           id="path1221"
           d="m 473.34202,473.35599 1.83334,-1.792 c 2.71333,-2.38533 3.75466,-3.32266 3.75466,-5.056 0,-1.97466 -1.57333,-3.36 -3.692,-3.36 -1.95866,0 -3.224,1.588 -3.224,3.136 0,0.95734 0.85867,0.95734 0.92134,0.95734 0.28133,0 0.896,-0.20267 0.896,-0.916 0,-0.448 -0.328,-0.896 -0.91734,-0.896 -0.14533,0 -0.18666,0 -0.224,0.0213 0.38534,-1.12533 1.324,-1.776 2.324,-1.776 1.588,0 2.32267,1.40533 2.32267,2.83333 0,1.38534 -0.85467,2.74934 -1.81333,3.83334 l -3.32267,3.708 c -0.18667,0.18666 -0.18667,0.224 -0.18667,0.63466 h 6.42667 l 0.48933,-3.02 h -0.448 c -0.0827,0.53067 -0.20266,1.28667 -0.36933,1.552 -0.12,0.14 -1.26533,0.14 -1.65067,0.14 z m 8.75467,-4.35866 v -0.40667 c 0,-4.38533 2.16133,-5.016 3.036,-5.016 0.40667,0 1.14133,0.1 1.532,0.69333 -0.26533,0 -0.95867,0 -0.95867,0.776 0,0.54667 0.40667,0.792 0.79734,0.792 0.28133,0 0.792,-0.14133 0.792,-0.81333 0,-1.04133 -0.756,-1.87467 -2.204,-1.87467 -2.21867,0 -4.54667,2.24 -4.54667,6.052 0,4.63067 2,5.86934 3.60933,5.86934 1.93734,0 3.568,-1.62934 3.568,-3.91067 0,-2.204 -1.52666,-3.87467 -3.464,-3.87467 -1.16133,0 -1.81733,0.87467 -2.16133,1.71334 z m 2.05733,5.58266 c -1.07866,0 -1.60933,-1.036 -1.71333,-1.30133 -0.30267,-0.81867 -0.30267,-2.204 -0.30267,-2.51067 0,-1.344 0.548,-3.07866 2.12,-3.07866 0.26534,0 1.05734,0 1.60934,1.06266 0.308,0.65067 0.308,1.52667 0.308,2.38534 0,0.83333 0,1.69333 -0.28667,2.32266 -0.532,1.04267 -1.32267,1.12 -1.73467,1.12 z m 9.344,-4.23866 c 0,-1.344 -0.208,-3.444 -1.14533,-5.40134 -1.03733,-2.12 -2.548,-3.26133 -2.70933,-3.26133 -0.104,0 -0.18667,0.0787 -0.18667,0.18267 0,0.0627 0,0.084 0.348,0.40666 1.69333,1.71334 2.672,4.464 2.672,8.07334 0,2.97866 -0.63467,6.01466 -2.776,8.21866 -0.244,0.20267 -0.244,0.224 -0.244,0.28134 0,0.104 0.0827,0.18666 0.18667,0.18666 0.16133,0 1.72933,-1.18266 2.75066,-3.38533 0.88,-1.916 1.104,-3.83333 1.104,-5.30133 z"
           style="fill:#000000;fill-opacity:1;fill-rule:nonzero;stroke:none;stroke-width:1.33333"
           sodipodi:nodetypes="ccsssssscssccccccccccsscsssssssscscsscscsscsscscsscs" />
      </g>
      <g
         id="g4"
         transform="translate(-12.541944)">
        <g
           id="g2"
           transform="translate(-71.06641,97.764992)">
          <path
             id="path1222"
             d="m 387.914,320.004 h 0.902 v -22.477 h 3.426 v -0.902 h -4.328 z m 0,7.816 h 0.902 v -7.828 h -0.902 z m 0,7.797 h 0.902 v -7.828 h -0.902 z m 0,7.801 h 0.902 v -7.828 h -0.902 z m 0,7.797 h 0.902 v -7.828 h -0.902 z m 0,7.801 h 0.902 v -7.828 h -0.902 z m 0,7.796 h 0.902 v -7.824 h -0.902 z m 0,23.364 h 4.328 v -0.887 h -3.426 v -22.488 h -0.902 z"
             style="fill:#000000;fill-opacity:1;fill-rule:nonzero;stroke:none"
             transform="scale(1.3333333)" />
          <path
             id="path1223"
             d="m 425.484,306.027 c -0.519,0.871 -1.023,1.055 -1.589,1.102 -0.168,0 -0.274,0 -0.274,0.262 0,0.074 0.059,0.136 0.168,0.136 0.352,0 0.75,-0.047 1.117,-0.047 0.426,0 0.887,0.047 1.297,0.047 0.078,0 0.246,0 0.246,-0.246 0,-0.152 -0.121,-0.152 -0.215,-0.152 -0.289,-0.031 -0.593,-0.137 -0.593,-0.457 0,-0.152 0.074,-0.309 0.168,-0.492 l 0.992,-1.649 h 3.258 c 0.031,0.258 0.214,2.031 0.214,2.172 0,0.379 -0.671,0.426 -0.933,0.426 -0.184,0 -0.32,0 -0.32,0.262 0,0.136 0.168,0.136 0.183,0.136 0.535,0 1.102,-0.047 1.637,-0.047 0.32,0 1.133,0.047 1.469,0.047 0.074,0 0.23,0 0.23,-0.261 0,-0.137 -0.141,-0.137 -0.309,-0.137 -0.792,0 -0.792,-0.09 -0.839,-0.473 l -0.797,-8.121 c -0.012,-0.258 -0.012,-0.32 -0.242,-0.32 -0.215,0 -0.262,0.094 -0.336,0.23 z m 1.563,-1.91 2.57,-4.281 0.41,4.281 z m 33.93,2.403 c -0.122,0.503 -0.153,0.609 -1.18,0.609 -0.227,0 -0.352,0 -0.352,0.262 0,0.136 0.11,0.136 0.352,0.136 h 4.637 c 2.046,0 3.593,-1.527 3.593,-2.812 0,-0.934 -0.765,-1.684 -2.019,-1.82 1.347,-0.262 2.722,-1.223 2.722,-2.446 0,-0.965 -0.855,-1.804 -2.418,-1.804 h -4.374 c -0.243,0 -0.379,0 -0.379,0.257 0,0.153 0.121,0.153 0.367,0.153 0.027,0 0.273,0 0.488,0.015 0.242,0.032 0.352,0.047 0.352,0.215 0,0.047 -0.016,0.09 -0.047,0.246 z m 1.957,-3.747 0.812,-3.226 c 0.121,-0.461 0.137,-0.488 0.703,-0.488 h 1.68 c 1.133,0 1.41,0.761 1.41,1.328 0,1.148 -1.117,2.386 -2.707,2.386 z m -0.582,4.356 c -0.184,0 -0.2,0 -0.29,-0.016 -0.124,-0.011 -0.167,-0.027 -0.167,-0.136 0,-0.032 0,-0.059 0.074,-0.289 l 0.886,-3.626 h 2.465 c 1.254,0 1.5,0.95 1.5,1.516 0,1.285 -1.164,2.551 -2.695,2.551 z m 42.695,-8.637 c 0,-0.031 -0.031,-0.125 -0.137,-0.125 -0.047,0 -0.062,0.016 -0.199,0.153 l -0.918,0.996 c -0.109,-0.184 -0.703,-1.149 -2.156,-1.149 -2.891,0 -5.813,2.875 -5.813,5.887 0,2.141 1.528,3.562 3.516,3.562 1.133,0 2.113,-0.519 2.801,-1.117 1.222,-1.07 1.437,-2.246 1.437,-2.293 0,-0.136 -0.137,-0.136 -0.152,-0.136 -0.078,0 -0.153,0.031 -0.168,0.136 -0.125,0.383 -0.414,1.301 -1.317,2.051 -0.902,0.734 -1.714,0.945 -2.402,0.945 -1.16,0 -2.539,-0.672 -2.539,-2.687 0,-0.75 0.277,-2.86 1.578,-4.375 0.793,-0.918 2,-1.574 3.164,-1.574 1.332,0 2.098,1.007 2.098,2.507 0,0.52 -0.047,0.536 -0.047,0.657 0,0.14 0.152,0.14 0.199,0.14 0.168,0 0.168,-0.031 0.227,-0.261 z m 27.848,8.028 c -0.122,0.503 -0.153,0.609 -1.176,0.609 -0.231,0 -0.367,0 -0.367,0.246 0,0.152 0.121,0.152 0.367,0.152 h 4.297 c 2.707,0 5.261,-2.738 5.261,-5.597 0,-1.817 -1.101,-3.285 -3.043,-3.285 h -4.375 c -0.246,0 -0.382,0 -0.382,0.257 0,0.153 0.109,0.153 0.367,0.153 0.168,0 0.414,0.015 0.566,0.015 0.199,0.032 0.274,0.078 0.274,0.215 0,0.047 0,0.09 -0.043,0.242 z m 2.816,-6.973 c 0.105,-0.461 0.137,-0.488 0.703,-0.488 h 1.391 c 1.269,0 2.34,0.687 2.34,2.398 0,0.641 -0.258,2.766 -1.36,4.203 -0.367,0.477 -1.406,1.469 -3,1.469 h -1.469 c -0.183,0 -0.211,0 -0.289,-0.016 -0.121,-0.011 -0.168,-0.027 -0.168,-0.136 0,-0.032 0,-0.059 0.063,-0.289 z m 40.844,4.953 c 0.027,-0.062 0.058,-0.152 0.058,-0.184 0,-0.015 0,-0.136 -0.152,-0.136 -0.121,0 -0.137,0.074 -0.168,0.152 -0.84,1.926 -1.332,2.797 -3.547,2.797 h -1.898 c -0.184,0 -0.215,0 -0.289,-0.016 -0.137,-0.011 -0.168,-0.027 -0.168,-0.136 0,-0.032 0,-0.059 0.058,-0.289 l 0.891,-3.547 h 1.281 c 1.102,0 1.102,0.273 1.102,0.597 0,0.09 0,0.242 -0.09,0.625 -0.016,0.078 -0.031,0.106 -0.031,0.153 0,0.062 0.046,0.136 0.168,0.136 0.109,0 0.136,-0.058 0.199,-0.257 l 0.734,-3.043 c 0,-0.079 -0.062,-0.137 -0.152,-0.137 -0.125,0 -0.137,0.074 -0.184,0.226 -0.277,0.997 -0.504,1.286 -1.699,1.286 h -1.223 l 0.782,-3.133 c 0.105,-0.446 0.121,-0.504 0.703,-0.504 h 1.836 c 1.574,0 1.972,0.379 1.972,1.449 0,0.309 0,0.34 -0.062,0.691 0,0.075 -0.016,0.168 -0.016,0.227 0,0.063 0.047,0.152 0.168,0.152 0.141,0 0.156,-0.074 0.184,-0.32 l 0.261,-2.246 c 0.032,-0.352 -0.031,-0.352 -0.351,-0.352 h -6.578 c -0.258,0 -0.383,0 -0.383,0.258 0,0.141 0.125,0.141 0.367,0.141 0.477,0 0.844,0 0.844,0.242 0,0.047 0,0.078 -0.063,0.309 l -1.726,6.879 c -0.125,0.503 -0.156,0.609 -1.18,0.609 -0.215,0 -0.367,0 -0.367,0.246 0,0.152 0.121,0.152 0.367,0.152 h 6.746 c 0.305,0 0.321,-0.011 0.414,-0.215 z m -181.196,17.129 c -0.523,0.871 -1.027,1.055 -1.593,1.098 -0.168,0 -0.274,0 -0.274,0.261 0,0.074 0.059,0.137 0.168,0.137 0.352,0 0.75,-0.047 1.117,-0.047 0.426,0 0.887,0.047 1.301,0.047 0.074,0 0.242,0 0.242,-0.242 0,-0.156 -0.121,-0.156 -0.215,-0.156 -0.289,-0.028 -0.593,-0.137 -0.593,-0.457 0,-0.153 0.074,-0.305 0.168,-0.489 l 0.992,-1.652 h 3.258 c 0.031,0.262 0.215,2.035 0.215,2.172 0,0.383 -0.672,0.426 -0.934,0.426 -0.184,0 -0.32,0 -0.32,0.261 0,0.137 0.168,0.137 0.183,0.137 0.535,0 1.102,-0.043 1.637,-0.043 0.32,0 1.133,0.043 1.469,0.043 0.074,0 0.23,0 0.23,-0.258 0,-0.14 -0.14,-0.14 -0.308,-0.14 -0.793,0 -0.793,-0.09 -0.84,-0.473 l -0.797,-8.117 c -0.012,-0.262 -0.012,-0.321 -0.242,-0.321 -0.215,0 -0.262,0.09 -0.336,0.227 z m 1.559,-1.914 2.57,-4.281 0.41,4.281 z"
             style="fill:#000000;fill-opacity:1;fill-rule:nonzero;stroke:none"
             transform="scale(1.3333333)" />
          <path
             id="path1224"
             d="m 422.457,318.969 c 0,-1.043 -0.062,-2.082 -0.519,-3.043 -0.598,-1.254 -1.668,-1.453 -2.204,-1.453 -0.781,0 -1.742,0.336 -2.261,1.543 -0.43,0.902 -0.493,1.91 -0.493,2.953 0,0.976 0.063,2.14 0.582,3.133 0.567,1.054 1.516,1.316 2.157,1.316 0.703,0 1.683,-0.277 2.265,-1.516 0.411,-0.902 0.473,-1.91 0.473,-2.933 z m -2.738,4.156 c -0.504,0 -1.285,-0.32 -1.512,-1.574 -0.141,-0.781 -0.141,-1.973 -0.141,-2.739 0,-0.839 0,-1.695 0.11,-2.398 0.242,-1.543 1.207,-1.652 1.543,-1.652 0.429,0 1.285,0.23 1.531,1.515 0.121,0.735 0.121,1.711 0.121,2.535 0,0.981 0,1.852 -0.137,2.692 -0.199,1.223 -0.933,1.621 -1.515,1.621 z"
             style="fill:#000000;fill-opacity:1;fill-rule:nonzero;stroke:none"
             transform="scale(1.3333333)" />
          <path
             id="path1225"
             d="m 425.473,322.438 c 0,-0.383 -0.309,-0.688 -0.692,-0.688 -0.367,0 -0.687,0.305 -0.687,0.688 0,0.382 0.32,0.687 0.687,0.687 0.383,0 0.692,-0.305 0.692,-0.687 z"
             style="fill:#000000;fill-opacity:1;fill-rule:nonzero;stroke:none"
             transform="scale(1.3333333)" />
          <path
             id="path1226"
             d="m 428.719,317.195 c -0.614,-0.398 -0.66,-0.843 -0.66,-1.058 0,-0.793 0.843,-1.344 1.773,-1.344 0.949,0 1.777,0.672 1.777,1.621 0,0.734 -0.507,1.359 -1.285,1.82 z m 1.894,1.223 c 0.934,-0.477 1.575,-1.148 1.575,-2.004 0,-1.207 -1.161,-1.941 -2.34,-1.941 -1.297,0 -2.356,0.961 -2.356,2.172 0,0.226 0.016,0.808 0.567,1.421 0.136,0.168 0.629,0.489 0.949,0.704 -0.75,0.382 -1.867,1.097 -1.867,2.398 0,1.375 1.316,2.25 2.691,2.25 1.469,0 2.695,-1.086 2.695,-2.48 0,-0.458 -0.14,-1.055 -0.629,-1.59 -0.246,-0.274 -0.457,-0.41 -1.285,-0.93 z m -1.301,0.551 1.594,1.008 c 0.367,0.242 0.977,0.64 0.977,1.437 0,0.961 -0.977,1.637 -2.035,1.637 -1.129,0 -2.063,-0.813 -2.063,-1.883 0,-0.766 0.41,-1.59 1.527,-2.199 z m 9.622,1.543 c 0,-1.543 -1.071,-2.844 -2.477,-2.844 -0.629,0 -1.18,0.215 -1.652,0.656 v -2.523 c 0.261,0.078 0.687,0.168 1.101,0.168 1.606,0 2.524,-1.192 2.524,-1.36 0,-0.074 -0.047,-0.136 -0.137,-0.136 -0.016,0 -0.047,0 -0.109,0.031 -0.258,0.121 -0.887,0.383 -1.758,0.383 -0.52,0 -1.117,-0.094 -1.727,-0.367 -0.109,-0.032 -0.14,-0.032 -0.168,-0.032 -0.125,0 -0.125,0.106 -0.125,0.305 v 3.852 c 0,0.23 0,0.339 0.184,0.339 0.094,0 0.109,-0.046 0.168,-0.125 0.14,-0.199 0.629,-0.902 1.668,-0.902 0.687,0 1.012,0.598 1.117,0.828 0.199,0.488 0.23,0.992 0.23,1.633 0,0.461 0,1.238 -0.308,1.789 -0.32,0.508 -0.793,0.844 -1.391,0.844 -0.949,0 -1.699,-0.688 -1.91,-1.453 0.027,0.011 0.074,0.011 0.211,0.011 0.43,0 0.66,-0.32 0.66,-0.625 0,-0.32 -0.23,-0.64 -0.66,-0.64 -0.184,0 -0.625,0.09 -0.625,0.687 0,1.114 0.887,2.383 2.34,2.383 1.515,0 2.844,-1.254 2.844,-2.902 z m 19.644,-1.543 c 0,-1.043 -0.062,-2.082 -0.519,-3.043 -0.598,-1.254 -1.668,-1.453 -2.204,-1.453 -0.781,0 -1.742,0.336 -2.265,1.543 -0.426,0.902 -0.488,1.91 -0.488,2.953 0,0.976 0.062,2.14 0.582,3.133 0.566,1.054 1.515,1.316 2.156,1.316 0.703,0 1.683,-0.277 2.265,-1.516 0.411,-0.902 0.473,-1.91 0.473,-2.933 z m -2.738,4.156 c -0.504,0 -1.285,-0.32 -1.516,-1.574 -0.136,-0.781 -0.136,-1.973 -0.136,-2.739 0,-0.839 0,-1.695 0.109,-2.398 0.242,-1.543 1.207,-1.652 1.543,-1.652 0.43,0 1.285,0.23 1.531,1.515 0.121,0.735 0.121,1.711 0.121,2.535 0,0.981 0,1.852 -0.137,2.692 -0.199,1.223 -0.933,1.621 -1.515,1.621 z"
             style="fill:#000000;fill-opacity:1;fill-rule:nonzero;stroke:none"
             transform="scale(1.3333333)" />
          <path
             id="path1227"
             d="m 461.59,322.438 c 0,-0.383 -0.305,-0.688 -0.688,-0.688 -0.367,0 -0.687,0.305 -0.687,0.688 0,0.382 0.32,0.687 0.687,0.687 0.383,0 0.688,-0.305 0.688,-0.687 z"
             style="fill:#000000;fill-opacity:1;fill-rule:nonzero;stroke:none"
             transform="scale(1.3333333)" />
          <path
             id="path1228"
             d="m 468.691,318.969 c 0,-1.043 -0.058,-2.082 -0.519,-3.043 -0.598,-1.254 -1.668,-1.453 -2.203,-1.453 -0.778,0 -1.742,0.336 -2.262,1.543 -0.43,0.902 -0.492,1.91 -0.492,2.953 0,0.976 0.062,2.14 0.582,3.133 0.566,1.054 1.515,1.316 2.156,1.316 0.703,0 1.684,-0.277 2.266,-1.516 0.414,-0.902 0.472,-1.91 0.472,-2.933 z m -2.738,4.156 c -0.504,0 -1.285,-0.32 -1.512,-1.574 -0.14,-0.781 -0.14,-1.973 -0.14,-2.739 0,-0.839 0,-1.695 0.109,-2.398 0.246,-1.543 1.207,-1.652 1.543,-1.652 0.43,0 1.285,0.23 1.531,1.515 0.121,0.735 0.121,1.711 0.121,2.535 0,0.981 0,1.852 -0.136,2.692 -0.199,1.223 -0.934,1.621 -1.516,1.621 z m 9.238,-4.156 c 0,-1.043 -0.058,-2.082 -0.519,-3.043 -0.594,-1.254 -1.668,-1.453 -2.203,-1.453 -0.778,0 -1.742,0.336 -2.262,1.543 -0.43,0.902 -0.488,1.91 -0.488,2.953 0,0.976 0.058,2.14 0.578,3.133 0.566,1.054 1.515,1.316 2.156,1.316 0.707,0 1.684,-0.277 2.266,-1.516 0.414,-0.902 0.472,-1.91 0.472,-2.933 z m -2.738,4.156 c -0.504,0 -1.281,-0.32 -1.512,-1.574 -0.136,-0.781 -0.136,-1.973 -0.136,-2.739 0,-0.839 0,-1.695 0.105,-2.398 0.246,-1.543 1.207,-1.652 1.543,-1.652 0.43,0 1.285,0.23 1.531,1.515 0.121,0.735 0.121,1.711 0.121,2.535 0,0.981 0,1.852 -0.136,2.692 -0.199,1.223 -0.934,1.621 -1.516,1.621 z m 22.246,-4.156 c 0,-1.043 -0.062,-2.082 -0.519,-3.043 -0.598,-1.254 -1.668,-1.453 -2.203,-1.453 -0.782,0 -1.747,0.336 -2.266,1.543 -0.426,0.902 -0.488,1.91 -0.488,2.953 0,0.976 0.062,2.14 0.582,3.133 0.566,1.054 1.515,1.316 2.156,1.316 0.703,0 1.684,-0.277 2.262,-1.516 0.414,-0.902 0.476,-1.91 0.476,-2.933 z m -2.738,4.156 c -0.504,0 -1.285,-0.32 -1.516,-1.574 -0.136,-0.781 -0.136,-1.973 -0.136,-2.739 0,-0.839 0,-1.695 0.105,-2.398 0.246,-1.543 1.211,-1.652 1.547,-1.652 0.43,0 1.285,0.23 1.531,1.515 0.121,0.735 0.121,1.711 0.121,2.535 0,0.981 0,1.852 -0.136,2.692 -0.2,1.223 -0.934,1.621 -1.516,1.621 z"
             style="fill:#000000;fill-opacity:1;fill-rule:nonzero;stroke:none"
             transform="scale(1.3333333)" />
          <path
             id="path1229"
             d="m 497.711,322.438 c 0,-0.383 -0.305,-0.688 -0.688,-0.688 -0.367,0 -0.687,0.305 -0.687,0.688 0,0.382 0.32,0.687 0.687,0.687 0.383,0 0.688,-0.305 0.688,-0.687 z"
             style="fill:#000000;fill-opacity:1;fill-rule:nonzero;stroke:none"
             transform="scale(1.3333333)" />
          <path
             id="path1230"
             d="m 504.812,318.969 c 0,-1.043 -0.062,-2.082 -0.519,-3.043 -0.598,-1.254 -1.668,-1.453 -2.203,-1.453 -0.781,0 -1.742,0.336 -2.262,1.543 -0.43,0.902 -0.492,1.91 -0.492,2.953 0,0.976 0.062,2.14 0.582,3.133 0.566,1.054 1.516,1.316 2.156,1.316 0.703,0 1.684,-0.277 2.266,-1.516 0.41,-0.902 0.472,-1.91 0.472,-2.933 z m -2.738,4.156 c -0.504,0 -1.285,-0.32 -1.512,-1.574 -0.14,-0.781 -0.14,-1.973 -0.14,-2.739 0,-0.839 0,-1.695 0.109,-2.398 0.242,-1.543 1.207,-1.652 1.543,-1.652 0.43,0 1.285,0.23 1.531,1.515 0.122,0.735 0.122,1.711 0.122,2.535 0,0.981 0,1.852 -0.137,2.692 -0.199,1.223 -0.934,1.621 -1.516,1.621 z m 9.242,-4.156 c 0,-1.043 -0.058,-2.082 -0.519,-3.043 -0.598,-1.254 -1.668,-1.453 -2.203,-1.453 -0.778,0 -1.742,0.336 -2.262,1.543 -0.43,0.902 -0.492,1.91 -0.492,2.953 0,0.976 0.062,2.14 0.582,3.133 0.566,1.054 1.516,1.316 2.156,1.316 0.703,0 1.684,-0.277 2.266,-1.516 0.414,-0.902 0.472,-1.91 0.472,-2.933 z m -2.738,4.156 c -0.504,0 -1.285,-0.32 -1.512,-1.574 -0.14,-0.781 -0.14,-1.973 -0.14,-2.739 0,-0.839 0,-1.695 0.109,-2.398 0.246,-1.543 1.207,-1.652 1.543,-1.652 0.43,0 1.285,0.23 1.531,1.515 0.121,0.735 0.121,1.711 0.121,2.535 0,0.981 0,1.852 -0.136,2.692 -0.199,1.223 -0.934,1.621 -1.516,1.621 z m 22.242,-4.156 c 0,-1.043 -0.062,-2.082 -0.519,-3.043 -0.598,-1.254 -1.668,-1.453 -2.203,-1.453 -0.782,0 -1.746,0.336 -2.266,1.543 -0.426,0.902 -0.488,1.91 -0.488,2.953 0,0.976 0.062,2.14 0.582,3.133 0.566,1.054 1.512,1.316 2.156,1.316 0.703,0 1.684,-0.277 2.262,-1.516 0.414,-0.902 0.476,-1.91 0.476,-2.933 z m -2.738,4.156 c -0.504,0 -1.285,-0.32 -1.516,-1.574 -0.136,-0.781 -0.136,-1.973 -0.136,-2.739 0,-0.839 0,-1.695 0.105,-2.398 0.246,-1.543 1.211,-1.652 1.547,-1.652 0.426,0 1.285,0.23 1.527,1.515 0.125,0.735 0.125,1.711 0.125,2.535 0,0.981 0,1.852 -0.14,2.692 -0.196,1.223 -0.93,1.621 -1.512,1.621 z"
             style="fill:#000000;fill-opacity:1;fill-rule:nonzero;stroke:none"
             transform="scale(1.3333333)" />
          <path
             id="path1231"
             d="m 533.832,322.438 c 0,-0.383 -0.305,-0.688 -0.687,-0.688 -0.368,0 -0.688,0.305 -0.688,0.688 0,0.382 0.32,0.687 0.688,0.687 0.382,0 0.687,-0.305 0.687,-0.687 z"
             style="fill:#000000;fill-opacity:1;fill-rule:nonzero;stroke:none"
             transform="scale(1.3333333)" />
          <path
             id="path1232"
             d="m 538.777,314.809 c 0,-0.305 0,-0.336 -0.304,-0.336 -0.797,0.824 -1.946,0.824 -2.356,0.824 v 0.414 c 0.258,0 1.024,0 1.695,-0.336 v 6.727 c 0,0.46 -0.046,0.628 -1.207,0.628 h -0.414 v 0.395 c 0.461,-0.043 1.575,-0.043 2.098,-0.043 0.52,0 1.649,0 2.109,0.043 v -0.395 h -0.414 c -1.175,0 -1.207,-0.156 -1.207,-0.628 z m 6.504,0 c 0,-0.305 0,-0.336 -0.304,-0.336 -0.797,0.824 -1.946,0.824 -2.356,0.824 v 0.414 c 0.258,0 1.024,0 1.695,-0.336 v 6.727 c 0,0.46 -0.043,0.628 -1.207,0.628 h -0.414 v 0.395 c 0.461,-0.043 1.578,-0.043 2.098,-0.043 0.519,0 1.652,0 2.109,0.043 v -0.395 h -0.414 c -1.176,0 -1.207,-0.156 -1.207,-0.628 z m 21.66,4.16 c 0,-1.043 -0.062,-2.082 -0.519,-3.043 -0.598,-1.254 -1.668,-1.453 -2.203,-1.453 -0.781,0 -1.746,0.336 -2.266,1.543 -0.43,0.902 -0.488,1.91 -0.488,2.953 0,0.976 0.062,2.14 0.582,3.133 0.562,1.054 1.512,1.316 2.156,1.316 0.703,0 1.68,-0.277 2.262,-1.516 0.414,-0.902 0.476,-1.91 0.476,-2.933 z m -2.738,4.156 c -0.504,0 -1.285,-0.32 -1.515,-1.574 -0.137,-0.781 -0.137,-1.973 -0.137,-2.739 0,-0.839 0,-1.695 0.105,-2.398 0.246,-1.543 1.211,-1.652 1.547,-1.652 0.426,0 1.285,0.23 1.527,1.515 0.125,0.735 0.125,1.711 0.125,2.535 0,0.981 0,1.852 -0.14,2.692 -0.199,1.223 -0.934,1.621 -1.512,1.621 z"
             style="fill:#000000;fill-opacity:1;fill-rule:nonzero;stroke:none"
             transform="scale(1.3333333)" />
          <path
             id="path1233"
             d="m 569.957,322.438 c 0,-0.383 -0.305,-0.688 -0.687,-0.688 -0.368,0 -0.688,0.305 -0.688,0.688 0,0.382 0.32,0.687 0.688,0.687 0.382,0 0.687,-0.305 0.687,-0.687 z"
             style="fill:#000000;fill-opacity:1;fill-rule:nonzero;stroke:none"
             transform="scale(1.3333333)" />
          <path
             id="path1234"
             d="m 574.898,314.809 c 0,-0.305 0,-0.336 -0.308,-0.336 -0.793,0.824 -1.942,0.824 -2.356,0.824 v 0.414 c 0.262,0 1.028,0 1.7,-0.336 v 6.727 c 0,0.46 -0.047,0.628 -1.207,0.628 h -0.415 v 0.395 c 0.458,-0.043 1.575,-0.043 2.094,-0.043 0.524,0 1.653,0 2.114,0.043 v -0.395 h -0.415 c -1.175,0 -1.207,-0.156 -1.207,-0.628 z m 7.454,4.187 v 0.414 c 0,3.043 -1.348,3.641 -2.114,3.641 -0.215,0 -0.918,-0.031 -1.269,-0.477 0.566,0 0.676,-0.367 0.676,-0.594 0,-0.398 -0.309,-0.597 -0.598,-0.597 -0.215,0 -0.598,0.121 -0.598,0.625 0,0.875 0.703,1.41 1.805,1.41 1.684,0 3.258,-1.773 3.258,-4.574 0,-3.485 -1.485,-4.371 -2.645,-4.371 -0.719,0 -1.347,0.23 -1.914,0.808 -0.535,0.598 -0.824,1.133 -0.824,2.11 0,1.621 1.148,2.906 2.601,2.906 0.793,0 1.313,-0.551 1.622,-1.301 z m -1.606,0.996 c -0.215,0 -0.812,0 -1.211,-0.812 -0.242,-0.489 -0.242,-1.129 -0.242,-1.774 0,-0.703 0,-1.312 0.273,-1.789 0.352,-0.656 0.84,-0.824 1.301,-0.824 0.598,0 1.024,0.445 1.254,1.023 0.152,0.414 0.199,1.239 0.199,1.836 0,1.086 -0.445,2.34 -1.574,2.34 z"
             style="fill:#000000;fill-opacity:1;fill-rule:nonzero;stroke:none"
             transform="scale(1.3333333)" />
          <path
             id="path1235"
             d="m 394.73,337.715 c -0.121,0.504 -0.152,0.613 -1.179,0.613 -0.227,0 -0.352,0 -0.352,0.258 0,0.141 0.11,0.141 0.352,0.141 h 4.637 c 2.05,0 3.593,-1.532 3.593,-2.817 0,-0.93 -0.765,-1.68 -2.019,-1.816 1.347,-0.262 2.722,-1.227 2.722,-2.449 0,-0.961 -0.855,-1.805 -2.414,-1.805 h -4.375 c -0.246,0 -0.383,0 -0.383,0.262 0,0.152 0.122,0.152 0.368,0.152 0.031,0 0.273,0 0.488,0.016 0.246,0.031 0.352,0.042 0.352,0.214 0,0.043 -0.016,0.09 -0.047,0.243 z m 1.958,-3.746 0.812,-3.227 c 0.121,-0.457 0.137,-0.488 0.703,-0.488 h 1.684 c 1.129,0 1.406,0.766 1.406,1.332 0,1.144 -1.117,2.383 -2.707,2.383 z m -0.583,4.359 c -0.183,0 -0.199,0 -0.289,-0.016 -0.121,-0.015 -0.168,-0.031 -0.168,-0.136 0,-0.031 0,-0.063 0.075,-0.293 l 0.89,-3.621 h 2.461 c 1.254,0 1.5,0.945 1.5,1.511 0,1.286 -1.164,2.555 -2.691,2.555 z"
             style="fill:#000000;fill-opacity:1;fill-rule:nonzero;stroke:none"
             transform="scale(1.3333333)" />
          <path
             id="path1236"
             d="m 422.457,334.566 c 0,-1.039 -0.062,-2.078 -0.519,-3.043 -0.598,-1.253 -1.668,-1.453 -2.204,-1.453 -0.781,0 -1.742,0.336 -2.261,1.543 -0.43,0.903 -0.493,1.914 -0.493,2.953 0,0.977 0.063,2.141 0.582,3.133 0.567,1.055 1.516,1.317 2.157,1.317 0.703,0 1.683,-0.278 2.265,-1.516 0.411,-0.902 0.473,-1.91 0.473,-2.934 z m -2.738,4.157 c -0.504,0 -1.285,-0.321 -1.512,-1.575 -0.141,-0.777 -0.141,-1.972 -0.141,-2.734 0,-0.844 0,-1.699 0.11,-2.402 0.242,-1.543 1.207,-1.653 1.543,-1.653 0.429,0 1.285,0.231 1.531,1.516 0.121,0.734 0.121,1.711 0.121,2.539 0,0.977 0,1.848 -0.137,2.691 -0.199,1.223 -0.933,1.618 -1.515,1.618 z"
             style="fill:#000000;fill-opacity:1;fill-rule:nonzero;stroke:none"
             transform="scale(1.3333333)" />
          <path
             id="path1237"
             d="m 425.473,338.035 c 0,-0.383 -0.309,-0.687 -0.692,-0.687 -0.367,0 -0.687,0.304 -0.687,0.687 0,0.383 0.32,0.688 0.687,0.688 0.383,0 0.692,-0.305 0.692,-0.688 z"
             style="fill:#000000;fill-opacity:1;fill-rule:nonzero;stroke:none"
             transform="scale(1.3333333)" />
          <path
             id="path1238"
             d="m 432.57,334.566 c 0,-1.039 -0.058,-2.078 -0.519,-3.043 -0.594,-1.253 -1.668,-1.453 -2.203,-1.453 -0.778,0 -1.743,0.336 -2.262,1.543 -0.43,0.903 -0.488,1.914 -0.488,2.953 0,0.977 0.058,2.141 0.578,3.133 0.566,1.055 1.515,1.317 2.156,1.317 0.707,0 1.684,-0.278 2.266,-1.516 0.414,-0.902 0.472,-1.91 0.472,-2.934 z m -2.738,4.157 c -0.504,0 -1.281,-0.321 -1.512,-1.575 -0.136,-0.777 -0.136,-1.972 -0.136,-2.734 0,-0.844 0,-1.699 0.105,-2.402 0.246,-1.543 1.207,-1.653 1.543,-1.653 0.43,0 1.285,0.231 1.531,1.516 0.121,0.734 0.121,1.711 0.121,2.539 0,0.977 0,1.848 -0.136,2.691 -0.2,1.223 -0.934,1.618 -1.516,1.618 z m 9.242,-4.157 c 0,-1.039 -0.062,-2.078 -0.523,-3.043 -0.594,-1.253 -1.664,-1.453 -2.199,-1.453 -0.782,0 -1.747,0.336 -2.266,1.543 -0.43,0.903 -0.488,1.914 -0.488,2.953 0,0.977 0.058,2.141 0.578,3.133 0.566,1.055 1.515,1.317 2.16,1.317 0.703,0 1.68,-0.278 2.262,-1.516 0.414,-0.902 0.476,-1.91 0.476,-2.934 z m -2.738,4.157 c -0.508,0 -1.285,-0.321 -1.516,-1.575 -0.136,-0.777 -0.136,-1.972 -0.136,-2.734 0,-0.844 0,-1.699 0.105,-2.402 0.246,-1.543 1.207,-1.653 1.547,-1.653 0.426,0 1.285,0.231 1.527,1.516 0.121,0.734 0.121,1.711 0.121,2.539 0,0.977 0,1.848 -0.136,2.691 -0.2,1.223 -0.934,1.618 -1.512,1.618 z m 22.242,-4.157 c 0,-1.039 -0.062,-2.078 -0.519,-3.043 -0.598,-1.253 -1.668,-1.453 -2.204,-1.453 -0.781,0 -1.742,0.336 -2.265,1.543 -0.426,0.903 -0.488,1.914 -0.488,2.953 0,0.977 0.062,2.141 0.582,3.133 0.566,1.055 1.515,1.317 2.156,1.317 0.703,0 1.683,-0.278 2.265,-1.516 0.411,-0.902 0.473,-1.91 0.473,-2.934 z m -2.738,4.157 c -0.504,0 -1.285,-0.321 -1.516,-1.575 -0.136,-0.777 -0.136,-1.972 -0.136,-2.734 0,-0.844 0,-1.699 0.109,-2.402 0.242,-1.543 1.207,-1.653 1.543,-1.653 0.43,0 1.285,0.231 1.531,1.516 0.121,0.734 0.121,1.711 0.121,2.539 0,0.977 0,1.848 -0.137,2.691 -0.199,1.223 -0.933,1.618 -1.515,1.618 z"
             style="fill:#000000;fill-opacity:1;fill-rule:nonzero;stroke:none"
             transform="scale(1.3333333)" />
          <path
             id="path1239"
             d="m 461.59,338.035 c 0,-0.383 -0.305,-0.687 -0.688,-0.687 -0.367,0 -0.687,0.304 -0.687,0.687 0,0.383 0.32,0.688 0.687,0.688 0.383,0 0.688,-0.305 0.688,-0.688 z"
             style="fill:#000000;fill-opacity:1;fill-rule:nonzero;stroke:none"
             transform="scale(1.3333333)" />
          <path
             id="path1240"
             d="m 464.836,332.793 c -0.609,-0.398 -0.656,-0.84 -0.656,-1.055 0,-0.797 0.84,-1.347 1.773,-1.347 0.949,0 1.777,0.675 1.777,1.621 0,0.734 -0.507,1.363 -1.285,1.82 z m 1.898,1.223 c 0.934,-0.473 1.575,-1.149 1.575,-2.004 0,-1.207 -1.161,-1.942 -2.34,-1.942 -1.301,0 -2.356,0.965 -2.356,2.172 0,0.231 0.016,0.809 0.567,1.422 0.136,0.168 0.629,0.488 0.949,0.703 -0.75,0.383 -1.867,1.102 -1.867,2.399 0,1.379 1.316,2.25 2.691,2.25 1.469,0 2.692,-1.086 2.692,-2.477 0,-0.461 -0.137,-1.055 -0.625,-1.59 -0.247,-0.277 -0.461,-0.414 -1.286,-0.933 z m -1.3,0.55 1.589,1.008 c 0.368,0.246 0.981,0.645 0.981,1.438 0,0.965 -0.981,1.636 -2.035,1.636 -1.133,0 -2.063,-0.812 -2.063,-1.882 0,-0.762 0.41,-1.59 1.528,-2.2 z m 7.601,2.016 v 1.133 c 0,0.461 -0.031,0.613 -0.992,0.613 h -0.277 v 0.395 c 0.535,-0.043 1.226,-0.043 1.761,-0.043 0.551,0 1.239,0 1.774,0.043 v -0.395 h -0.278 c -0.961,0 -0.992,-0.152 -0.992,-0.613 v -1.133 h 1.301 v -0.41 h -1.301 v -5.902 c 0,-0.262 0,-0.336 -0.199,-0.336 -0.121,0 -0.152,0 -0.262,0.152 l -3.992,6.086 v 0.414 z m 0.078,-0.41 h -3.168 l 3.168,-4.848 z m 21.586,-1.606 c 0,-1.039 -0.062,-2.078 -0.519,-3.043 -0.598,-1.253 -1.668,-1.453 -2.203,-1.453 -0.782,0 -1.747,0.336 -2.266,1.543 -0.426,0.903 -0.488,1.914 -0.488,2.953 0,0.977 0.062,2.141 0.582,3.133 0.566,1.055 1.511,1.317 2.156,1.317 0.703,0 1.684,-0.278 2.262,-1.516 0.414,-0.902 0.476,-1.91 0.476,-2.934 z m -2.738,4.157 c -0.504,0 -1.285,-0.321 -1.516,-1.575 -0.136,-0.777 -0.136,-1.972 -0.136,-2.734 0,-0.844 0,-1.699 0.105,-2.402 0.246,-1.543 1.211,-1.653 1.547,-1.653 0.43,0 1.285,0.231 1.527,1.516 0.125,0.734 0.125,1.711 0.125,2.539 0,0.977 0,1.848 -0.14,2.691 -0.196,1.223 -0.93,1.618 -1.512,1.618 z"
             style="fill:#000000;fill-opacity:1;fill-rule:nonzero;stroke:none"
             transform="scale(1.3333333)" />
          <path
             id="path1241"
             d="m 497.711,338.035 c 0,-0.383 -0.305,-0.687 -0.688,-0.687 -0.367,0 -0.687,0.304 -0.687,0.687 0,0.383 0.32,0.688 0.687,0.688 0.383,0 0.688,-0.305 0.688,-0.688 z"
             style="fill:#000000;fill-opacity:1;fill-rule:nonzero;stroke:none"
             transform="scale(1.3333333)" />
          <path
             id="path1242"
             d="m 502.656,330.406 c 0,-0.304 0,-0.336 -0.304,-0.336 -0.797,0.828 -1.946,0.828 -2.356,0.828 v 0.411 c 0.258,0 1.024,0 1.695,-0.336 v 6.726 c 0,0.461 -0.043,0.629 -1.207,0.629 h -0.414 v 0.399 c 0.461,-0.047 1.578,-0.047 2.098,-0.047 0.52,0 1.652,0 2.109,0.047 v -0.399 h -0.414 c -1.175,0 -1.207,-0.152 -1.207,-0.629 z m 4.809,2.387 c -0.613,-0.398 -0.66,-0.84 -0.66,-1.055 0,-0.797 0.84,-1.347 1.773,-1.347 0.949,0 1.777,0.675 1.777,1.621 0,0.734 -0.507,1.363 -1.285,1.82 z m 1.894,1.223 c 0.934,-0.473 1.575,-1.149 1.575,-2.004 0,-1.207 -1.161,-1.942 -2.34,-1.942 -1.301,0 -2.356,0.965 -2.356,2.172 0,0.231 0.016,0.809 0.567,1.422 0.136,0.168 0.629,0.488 0.949,0.703 -0.75,0.383 -1.867,1.102 -1.867,2.399 0,1.379 1.316,2.25 2.691,2.25 1.469,0 2.695,-1.086 2.695,-2.477 0,-0.461 -0.14,-1.055 -0.628,-1.59 -0.247,-0.277 -0.457,-0.414 -1.286,-0.933 z m -1.3,0.55 1.589,1.008 c 0.368,0.246 0.981,0.645 0.981,1.438 0,0.965 -0.981,1.636 -2.035,1.636 -1.129,0 -2.063,-0.812 -2.063,-1.882 0,-0.762 0.41,-1.59 1.528,-2.2 z m 22.761,0 c 0,-1.039 -0.062,-2.078 -0.519,-3.043 -0.598,-1.253 -1.668,-1.453 -2.203,-1.453 -0.782,0 -1.746,0.336 -2.266,1.543 -0.426,0.903 -0.488,1.914 -0.488,2.953 0,0.977 0.062,2.141 0.582,3.133 0.566,1.055 1.512,1.317 2.156,1.317 0.703,0 1.684,-0.278 2.262,-1.516 0.414,-0.902 0.476,-1.91 0.476,-2.934 z m -2.738,4.157 c -0.504,0 -1.285,-0.321 -1.516,-1.575 -0.136,-0.777 -0.136,-1.972 -0.136,-2.734 0,-0.844 0,-1.699 0.105,-2.402 0.246,-1.543 1.211,-1.653 1.547,-1.653 0.426,0 1.285,0.231 1.527,1.516 0.125,0.734 0.125,1.711 0.125,2.539 0,0.977 0,1.848 -0.14,2.691 -0.196,1.223 -0.93,1.618 -1.512,1.618 z"
             style="fill:#000000;fill-opacity:1;fill-rule:nonzero;stroke:none"
             transform="scale(1.3333333)" />
          <path
             id="path1243"
             d="m 533.832,338.035 c 0,-0.383 -0.305,-0.687 -0.687,-0.687 -0.368,0 -0.688,0.304 -0.688,0.687 0,0.383 0.32,0.688 0.688,0.688 0.382,0 0.687,-0.305 0.687,-0.688 z"
             style="fill:#000000;fill-opacity:1;fill-rule:nonzero;stroke:none"
             transform="scale(1.3333333)" />
          <path
             id="path1244"
             d="m 540.934,334.566 c 0,-1.039 -0.063,-2.078 -0.52,-3.043 -0.598,-1.253 -1.668,-1.453 -2.203,-1.453 -0.781,0 -1.742,0.336 -2.266,1.543 -0.425,0.903 -0.488,1.914 -0.488,2.953 0,0.977 0.063,2.141 0.582,3.133 0.566,1.055 1.516,1.317 2.156,1.317 0.703,0 1.684,-0.278 2.266,-1.516 0.41,-0.902 0.473,-1.91 0.473,-2.934 z m -2.739,4.157 c -0.504,0 -1.285,-0.321 -1.515,-1.575 -0.137,-0.777 -0.137,-1.972 -0.137,-2.734 0,-0.844 0,-1.699 0.109,-2.402 0.243,-1.543 1.207,-1.653 1.543,-1.653 0.43,0 1.285,0.231 1.532,1.516 0.121,0.734 0.121,1.711 0.121,2.539 0,0.977 0,1.848 -0.137,2.691 -0.199,1.223 -0.934,1.618 -1.516,1.618 z m 8.035,-4.125 v 0.41 c 0,3.043 -1.347,3.64 -2.113,3.64 -0.211,0 -0.918,-0.031 -1.269,-0.472 0.566,0 0.675,-0.367 0.675,-0.598 0,-0.398 -0.308,-0.598 -0.597,-0.598 -0.215,0 -0.598,0.125 -0.598,0.629 0,0.871 0.703,1.407 1.805,1.407 1.683,0 3.258,-1.774 3.258,-4.571 0,-3.488 -1.481,-4.375 -2.645,-4.375 -0.719,0 -1.348,0.231 -1.91,0.813 -0.539,0.594 -0.828,1.129 -0.828,2.109 0,1.621 1.148,2.903 2.601,2.903 0.793,0 1.313,-0.551 1.621,-1.297 z m -1.605,0.992 c -0.215,0 -0.813,0 -1.211,-0.809 -0.242,-0.492 -0.242,-1.133 -0.242,-1.773 0,-0.703 0,-1.317 0.273,-1.789 0.352,-0.66 0.84,-0.828 1.301,-0.828 0.598,0 1.024,0.445 1.254,1.027 0.152,0.41 0.199,1.238 0.199,1.832 0,1.086 -0.445,2.34 -1.574,2.34 z m 22.316,-1.024 c 0,-1.039 -0.062,-2.078 -0.519,-3.043 -0.598,-1.253 -1.668,-1.453 -2.203,-1.453 -0.781,0 -1.746,0.336 -2.266,1.543 -0.43,0.903 -0.488,1.914 -0.488,2.953 0,0.977 0.062,2.141 0.582,3.133 0.562,1.055 1.512,1.317 2.156,1.317 0.703,0 1.68,-0.278 2.262,-1.516 0.414,-0.902 0.476,-1.91 0.476,-2.934 z m -2.738,4.157 c -0.504,0 -1.285,-0.321 -1.515,-1.575 -0.137,-0.777 -0.137,-1.972 -0.137,-2.734 0,-0.844 0,-1.699 0.105,-2.402 0.246,-1.543 1.211,-1.653 1.547,-1.653 0.426,0 1.285,0.231 1.527,1.516 0.125,0.734 0.125,1.711 0.125,2.539 0,0.977 0,1.848 -0.14,2.691 -0.199,1.223 -0.934,1.618 -1.512,1.618 z"
             style="fill:#000000;fill-opacity:1;fill-rule:nonzero;stroke:none"
             transform="scale(1.3333333)" />
          <path
             id="path1245"
             d="m 569.957,338.035 c 0,-0.383 -0.305,-0.687 -0.687,-0.687 -0.368,0 -0.688,0.304 -0.688,0.687 0,0.383 0.32,0.688 0.688,0.688 0.382,0 0.687,-0.305 0.687,-0.688 z"
             style="fill:#000000;fill-opacity:1;fill-rule:nonzero;stroke:none"
             transform="scale(1.3333333)" />
          <path
             id="path1246"
             d="m 577.055,334.566 c 0,-1.039 -0.063,-2.078 -0.52,-3.043 -0.597,-1.253 -1.668,-1.453 -2.203,-1.453 -0.781,0 -1.746,0.336 -2.266,1.543 -0.425,0.903 -0.488,1.914 -0.488,2.953 0,0.977 0.063,2.141 0.582,3.133 0.567,1.055 1.516,1.317 2.156,1.317 0.704,0 1.684,-0.278 2.262,-1.516 0.414,-0.902 0.477,-1.91 0.477,-2.934 z m -2.739,4.157 c -0.504,0 -1.285,-0.321 -1.515,-1.575 -0.137,-0.777 -0.137,-1.972 -0.137,-2.734 0,-0.844 0,-1.699 0.106,-2.402 0.246,-1.543 1.21,-1.653 1.546,-1.653 0.43,0 1.286,0.231 1.532,1.516 0.121,0.734 0.121,1.711 0.121,2.539 0,0.977 0,1.848 -0.137,2.691 -0.199,1.223 -0.934,1.618 -1.516,1.618 z m 9.243,-4.157 c 0,-1.039 -0.063,-2.078 -0.52,-3.043 -0.598,-1.253 -1.668,-1.453 -2.203,-1.453 -0.781,0 -1.742,0.336 -2.262,1.543 -0.429,0.903 -0.492,1.914 -0.492,2.953 0,0.977 0.063,2.141 0.582,3.133 0.566,1.055 1.516,1.317 2.156,1.317 0.703,0 1.684,-0.278 2.266,-1.516 0.41,-0.902 0.473,-1.91 0.473,-2.934 z m -2.739,4.157 c -0.504,0 -1.285,-0.321 -1.515,-1.575 -0.137,-0.777 -0.137,-1.972 -0.137,-2.734 0,-0.844 0,-1.699 0.109,-2.402 0.243,-1.543 1.207,-1.653 1.543,-1.653 0.43,0 1.285,0.231 1.532,1.516 0.121,0.734 0.121,1.711 0.121,2.539 0,0.977 0,1.848 -0.137,2.691 -0.199,1.223 -0.934,1.618 -1.516,1.618 z"
             style="fill:#000000;fill-opacity:1;fill-rule:nonzero;stroke:none"
             transform="scale(1.3333333)" />
          <path
             id="path1247"
             d="m 402.68,345.289 c 0,-0.031 -0.032,-0.125 -0.137,-0.125 -0.047,0 -0.063,0.016 -0.199,0.152 l -0.918,0.996 c -0.106,-0.183 -0.703,-1.148 -2.156,-1.148 -2.891,0 -5.813,2.875 -5.813,5.887 0,2.14 1.531,3.562 3.52,3.562 1.128,0 2.109,-0.519 2.796,-1.117 1.223,-1.07 1.438,-2.246 1.438,-2.293 0,-0.137 -0.137,-0.137 -0.152,-0.137 -0.075,0 -0.153,0.032 -0.168,0.137 -0.121,0.383 -0.414,1.301 -1.317,2.051 -0.902,0.734 -1.711,0.945 -2.398,0.945 -1.164,0 -2.543,-0.672 -2.543,-2.691 0,-0.746 0.277,-2.856 1.578,-4.371 0.793,-0.918 2.004,-1.575 3.164,-1.575 1.332,0 2.098,1.008 2.098,2.508 0,0.52 -0.047,0.535 -0.047,0.657 0,0.136 0.152,0.136 0.199,0.136 0.168,0 0.168,-0.027 0.23,-0.258 z"
             style="fill:#000000;fill-opacity:1;fill-rule:nonzero;stroke:none"
             transform="scale(1.3333333)" />
          <path
             id="path1248"
             d="m 422.457,350.164 c 0,-1.039 -0.062,-2.078 -0.519,-3.043 -0.598,-1.254 -1.668,-1.453 -2.204,-1.453 -0.781,0 -1.742,0.336 -2.261,1.547 -0.43,0.902 -0.493,1.91 -0.493,2.949 0,0.981 0.063,2.141 0.582,3.137 0.567,1.054 1.516,1.312 2.157,1.312 0.703,0 1.683,-0.273 2.265,-1.511 0.411,-0.903 0.473,-1.914 0.473,-2.938 z m -2.738,4.16 c -0.504,0 -1.285,-0.32 -1.512,-1.574 -0.141,-0.781 -0.141,-1.973 -0.141,-2.738 0,-0.84 0,-1.696 0.11,-2.403 0.242,-1.543 1.207,-1.648 1.543,-1.648 0.429,0 1.285,0.23 1.531,1.512 0.121,0.734 0.121,1.715 0.121,2.539 0,0.976 0,1.851 -0.137,2.691 -0.199,1.223 -0.933,1.621 -1.515,1.621 z"
             style="fill:#000000;fill-opacity:1;fill-rule:nonzero;stroke:none"
             transform="scale(1.3333333)" />
          <path
             id="path1249"
             d="m 425.473,353.637 c 0,-0.383 -0.309,-0.692 -0.692,-0.692 -0.367,0 -0.687,0.309 -0.687,0.692 0,0.379 0.32,0.687 0.687,0.687 0.383,0 0.692,-0.308 0.692,-0.687 z"
             style="fill:#000000;fill-opacity:1;fill-rule:nonzero;stroke:none"
             transform="scale(1.3333333)" />
          <path
             id="path1250"
             d="m 432.57,350.164 c 0,-1.039 -0.058,-2.078 -0.519,-3.043 -0.594,-1.254 -1.668,-1.453 -2.203,-1.453 -0.778,0 -1.743,0.336 -2.262,1.547 -0.43,0.902 -0.488,1.91 -0.488,2.949 0,0.981 0.058,2.141 0.578,3.137 0.566,1.054 1.515,1.312 2.156,1.312 0.707,0 1.684,-0.273 2.266,-1.511 0.414,-0.903 0.472,-1.914 0.472,-2.938 z m -2.738,4.16 c -0.504,0 -1.281,-0.32 -1.512,-1.574 -0.136,-0.781 -0.136,-1.973 -0.136,-2.738 0,-0.84 0,-1.696 0.105,-2.403 0.246,-1.543 1.207,-1.648 1.543,-1.648 0.43,0 1.285,0.23 1.531,1.512 0.121,0.734 0.121,1.715 0.121,2.539 0,0.976 0,1.851 -0.136,2.691 -0.2,1.223 -0.934,1.621 -1.516,1.621 z m 9.242,-4.16 c 0,-1.039 -0.062,-2.078 -0.523,-3.043 -0.594,-1.254 -1.664,-1.453 -2.199,-1.453 -0.782,0 -1.747,0.336 -2.266,1.547 -0.43,0.902 -0.488,1.91 -0.488,2.949 0,0.981 0.058,2.141 0.578,3.137 0.566,1.054 1.515,1.312 2.16,1.312 0.703,0 1.68,-0.273 2.262,-1.511 0.414,-0.903 0.476,-1.914 0.476,-2.938 z m -2.738,4.16 c -0.508,0 -1.285,-0.32 -1.516,-1.574 -0.136,-0.781 -0.136,-1.973 -0.136,-2.738 0,-0.84 0,-1.696 0.105,-2.403 0.246,-1.543 1.207,-1.648 1.547,-1.648 0.426,0 1.285,0.23 1.527,1.512 0.121,0.734 0.121,1.715 0.121,2.539 0,0.976 0,1.851 -0.136,2.691 -0.2,1.223 -0.934,1.621 -1.512,1.621 z m 22.242,-4.16 c 0,-1.039 -0.062,-2.078 -0.519,-3.043 -0.598,-1.254 -1.668,-1.453 -2.204,-1.453 -0.781,0 -1.742,0.336 -2.265,1.547 -0.426,0.902 -0.488,1.91 -0.488,2.949 0,0.981 0.062,2.141 0.582,3.137 0.566,1.054 1.515,1.312 2.156,1.312 0.703,0 1.683,-0.273 2.265,-1.511 0.411,-0.903 0.473,-1.914 0.473,-2.938 z m -2.738,4.16 c -0.504,0 -1.285,-0.32 -1.516,-1.574 -0.136,-0.781 -0.136,-1.973 -0.136,-2.738 0,-0.84 0,-1.696 0.109,-2.403 0.242,-1.543 1.207,-1.648 1.543,-1.648 0.43,0 1.285,0.23 1.531,1.512 0.121,0.734 0.121,1.715 0.121,2.539 0,0.976 0,1.851 -0.137,2.691 -0.199,1.223 -0.933,1.621 -1.515,1.621 z"
             style="fill:#000000;fill-opacity:1;fill-rule:nonzero;stroke:none"
             transform="scale(1.3333333)" />
          <path
             id="path1251"
             d="m 461.59,353.637 c 0,-0.383 -0.305,-0.692 -0.688,-0.692 -0.367,0 -0.687,0.309 -0.687,0.692 0,0.379 0.32,0.687 0.687,0.687 0.383,0 0.688,-0.308 0.688,-0.687 z"
             style="fill:#000000;fill-opacity:1;fill-rule:nonzero;stroke:none"
             transform="scale(1.3333333)" />
          <path
             id="path1252"
             d="m 466.535,346.008 c 0,-0.309 0,-0.34 -0.305,-0.34 -0.796,0.828 -1.941,0.828 -2.355,0.828 v 0.414 c 0.258,0 1.023,0 1.695,-0.34 v 6.731 c 0,0.457 -0.043,0.625 -1.207,0.625 h -0.414 v 0.398 c 0.461,-0.047 1.578,-0.047 2.098,-0.047 0.519,0 1.652,0 2.109,0.047 v -0.398 h -0.414 c -1.176,0 -1.207,-0.153 -1.207,-0.625 z m 4.805,2.383 c -0.613,-0.399 -0.66,-0.84 -0.66,-1.055 0,-0.793 0.843,-1.344 1.773,-1.344 0.949,0 1.777,0.672 1.777,1.617 0,0.735 -0.507,1.364 -1.285,1.821 z m 1.894,1.222 c 0.934,-0.472 1.578,-1.144 1.578,-2.004 0,-1.207 -1.164,-1.941 -2.343,-1.941 -1.297,0 -2.356,0.965 -2.356,2.172 0,0.23 0.016,0.812 0.567,1.422 0.14,0.168 0.629,0.488 0.949,0.703 -0.75,0.383 -1.867,1.101 -1.867,2.402 0,1.375 1.316,2.246 2.691,2.246 1.469,0 2.695,-1.086 2.695,-2.476 0,-0.457 -0.14,-1.055 -0.628,-1.59 -0.247,-0.274 -0.458,-0.414 -1.286,-0.934 z m -1.3,0.551 1.593,1.008 c 0.368,0.246 0.977,0.644 0.977,1.437 0,0.965 -0.977,1.637 -2.035,1.637 -1.129,0 -2.063,-0.808 -2.063,-1.879 0,-0.765 0.414,-1.59 1.528,-2.203 z m 22.765,0 c 0,-1.039 -0.062,-2.078 -0.519,-3.043 -0.598,-1.254 -1.668,-1.453 -2.203,-1.453 -0.782,0 -1.747,0.336 -2.266,1.547 -0.426,0.902 -0.488,1.91 -0.488,2.949 0,0.981 0.062,2.141 0.582,3.137 0.566,1.054 1.515,1.312 2.156,1.312 0.703,0 1.684,-0.273 2.262,-1.511 0.414,-0.903 0.476,-1.914 0.476,-2.938 z m -2.738,4.16 c -0.504,0 -1.285,-0.32 -1.516,-1.574 -0.136,-0.781 -0.136,-1.973 -0.136,-2.738 0,-0.84 0,-1.696 0.105,-2.403 0.246,-1.543 1.211,-1.648 1.547,-1.648 0.43,0 1.285,0.23 1.531,1.512 0.121,0.734 0.121,1.715 0.121,2.539 0,0.976 0,1.851 -0.136,2.691 -0.2,1.223 -0.934,1.621 -1.516,1.621 z"
             style="fill:#000000;fill-opacity:1;fill-rule:nonzero;stroke:none"
             transform="scale(1.3333333)" />
          <path
             id="path1253"
             d="m 497.711,353.637 c 0,-0.383 -0.305,-0.692 -0.688,-0.692 -0.367,0 -0.687,0.309 -0.687,0.692 0,0.379 0.32,0.687 0.687,0.687 0.383,0 0.688,-0.308 0.688,-0.687 z"
             style="fill:#000000;fill-opacity:1;fill-rule:nonzero;stroke:none"
             transform="scale(1.3333333)" />
          <path
             id="path1254"
             d="m 500.957,348.391 c -0.609,-0.399 -0.656,-0.84 -0.656,-1.055 0,-0.793 0.84,-1.344 1.773,-1.344 0.949,0 1.774,0.672 1.774,1.617 0,0.735 -0.504,1.364 -1.282,1.821 z m 1.898,1.222 c 0.934,-0.472 1.575,-1.144 1.575,-2.004 0,-1.207 -1.16,-1.941 -2.34,-1.941 -1.301,0 -2.356,0.965 -2.356,2.172 0,0.23 0.016,0.812 0.567,1.422 0.137,0.168 0.629,0.488 0.949,0.703 -0.75,0.383 -1.867,1.101 -1.867,2.402 0,1.375 1.316,2.246 2.691,2.246 1.469,0 2.692,-1.086 2.692,-2.476 0,-0.457 -0.137,-1.055 -0.625,-1.59 -0.246,-0.274 -0.461,-0.414 -1.286,-0.934 z m -1.3,0.551 1.59,1.008 c 0.367,0.246 0.98,0.644 0.98,1.437 0,0.965 -0.98,1.637 -2.035,1.637 -1.133,0 -2.063,-0.808 -2.063,-1.879 0,-0.765 0.411,-1.59 1.528,-2.203 z m 9.625,1.543 c 0,-1.543 -1.071,-2.844 -2.477,-2.844 -0.629,0 -1.18,0.215 -1.652,0.66 V 347 c 0.258,0.074 0.687,0.168 1.101,0.168 1.606,0 2.524,-1.191 2.524,-1.359 0,-0.079 -0.047,-0.141 -0.137,-0.141 -0.016,0 -0.047,0 -0.109,0.031 -0.258,0.121 -0.887,0.383 -1.758,0.383 -0.52,0 -1.117,-0.09 -1.731,-0.367 -0.105,-0.031 -0.136,-0.031 -0.168,-0.031 -0.121,0 -0.121,0.109 -0.121,0.308 v 3.852 c 0,0.23 0,0.336 0.184,0.336 0.09,0 0.105,-0.047 0.168,-0.121 0.137,-0.2 0.629,-0.903 1.668,-0.903 0.687,0 1.008,0.594 1.117,0.824 0.199,0.489 0.227,0.997 0.227,1.637 0,0.457 0,1.238 -0.305,1.789 -0.32,0.504 -0.797,0.84 -1.391,0.84 -0.949,0 -1.699,-0.687 -1.914,-1.453 0.032,0.016 0.078,0.016 0.215,0.016 0.43,0 0.656,-0.321 0.656,-0.625 0,-0.325 -0.226,-0.645 -0.656,-0.645 -0.183,0 -0.625,0.094 -0.625,0.688 0,1.117 0.887,2.386 2.34,2.386 1.512,0 2.844,-1.254 2.844,-2.906 z m 19.64,-1.543 c 0,-1.039 -0.062,-2.078 -0.519,-3.043 -0.598,-1.254 -1.668,-1.453 -2.203,-1.453 -0.782,0 -1.746,0.336 -2.266,1.547 -0.426,0.902 -0.488,1.91 -0.488,2.949 0,0.981 0.062,2.141 0.582,3.137 0.566,1.054 1.512,1.312 2.156,1.312 0.703,0 1.684,-0.273 2.262,-1.511 0.414,-0.903 0.476,-1.914 0.476,-2.938 z m -2.738,4.16 c -0.504,0 -1.285,-0.32 -1.516,-1.574 -0.136,-0.781 -0.136,-1.973 -0.136,-2.738 0,-0.84 0,-1.696 0.105,-2.403 0.246,-1.543 1.211,-1.648 1.547,-1.648 0.426,0 1.285,0.23 1.527,1.512 0.125,0.734 0.125,1.715 0.125,2.539 0,0.976 0,1.851 -0.14,2.691 -0.196,1.223 -0.93,1.621 -1.512,1.621 z"
             style="fill:#000000;fill-opacity:1;fill-rule:nonzero;stroke:none"
             transform="scale(1.3333333)" />
          <path
             id="path1255"
             d="m 533.832,353.637 c 0,-0.383 -0.305,-0.692 -0.687,-0.692 -0.368,0 -0.688,0.309 -0.688,0.692 0,0.379 0.32,0.687 0.688,0.687 0.382,0 0.687,-0.308 0.687,-0.687 z"
             style="fill:#000000;fill-opacity:1;fill-rule:nonzero;stroke:none"
             transform="scale(1.3333333)" />
          <path
             id="path1256"
             d="m 540.934,350.164 c 0,-1.039 -0.063,-2.078 -0.52,-3.043 -0.598,-1.254 -1.668,-1.453 -2.203,-1.453 -0.781,0 -1.742,0.336 -2.266,1.547 -0.425,0.902 -0.488,1.91 -0.488,2.949 0,0.981 0.063,2.141 0.582,3.137 0.566,1.054 1.516,1.312 2.156,1.312 0.703,0 1.684,-0.273 2.266,-1.511 0.41,-0.903 0.473,-1.914 0.473,-2.938 z m -2.739,4.16 c -0.504,0 -1.285,-0.32 -1.515,-1.574 -0.137,-0.781 -0.137,-1.973 -0.137,-2.738 0,-0.84 0,-1.696 0.109,-2.403 0.243,-1.543 1.207,-1.648 1.543,-1.648 0.43,0 1.285,0.23 1.532,1.512 0.121,0.734 0.121,1.715 0.121,2.539 0,0.976 0,1.851 -0.137,2.691 -0.199,1.223 -0.934,1.621 -1.516,1.621 z m 9.243,-4.16 c 0,-1.039 -0.063,-2.078 -0.52,-3.043 -0.598,-1.254 -1.668,-1.453 -2.203,-1.453 -0.781,0 -1.742,0.336 -2.262,1.547 -0.43,0.902 -0.492,1.91 -0.492,2.949 0,0.981 0.062,2.141 0.582,3.137 0.566,1.054 1.516,1.312 2.156,1.312 0.703,0 1.684,-0.273 2.266,-1.511 0.41,-0.903 0.473,-1.914 0.473,-2.938 z m -2.739,4.16 c -0.504,0 -1.285,-0.32 -1.511,-1.574 -0.141,-0.781 -0.141,-1.973 -0.141,-2.738 0,-0.84 0,-1.696 0.109,-2.403 0.242,-1.543 1.207,-1.648 1.543,-1.648 0.43,0 1.285,0.23 1.531,1.512 0.122,0.734 0.122,1.715 0.122,2.539 0,0.976 0,1.851 -0.137,2.691 -0.199,1.223 -0.934,1.621 -1.516,1.621 z m 22.242,-4.16 c 0,-1.039 -0.062,-2.078 -0.519,-3.043 -0.598,-1.254 -1.668,-1.453 -2.203,-1.453 -0.781,0 -1.746,0.336 -2.266,1.547 -0.43,0.902 -0.488,1.91 -0.488,2.949 0,0.981 0.062,2.141 0.582,3.137 0.562,1.054 1.512,1.312 2.156,1.312 0.703,0 1.68,-0.273 2.262,-1.511 0.414,-0.903 0.476,-1.914 0.476,-2.938 z m -2.738,4.16 c -0.504,0 -1.285,-0.32 -1.515,-1.574 -0.137,-0.781 -0.137,-1.973 -0.137,-2.738 0,-0.84 0,-1.696 0.105,-2.403 0.246,-1.543 1.211,-1.648 1.547,-1.648 0.426,0 1.285,0.23 1.527,1.512 0.125,0.734 0.125,1.715 0.125,2.539 0,0.976 0,1.851 -0.14,2.691 -0.199,1.223 -0.934,1.621 -1.512,1.621 z"
             style="fill:#000000;fill-opacity:1;fill-rule:nonzero;stroke:none"
             transform="scale(1.3333333)" />
          <path
             id="path1257"
             d="m 569.957,353.637 c 0,-0.383 -0.305,-0.692 -0.687,-0.692 -0.368,0 -0.688,0.309 -0.688,0.692 0,0.379 0.32,0.687 0.688,0.687 0.382,0 0.687,-0.308 0.687,-0.687 z"
             style="fill:#000000;fill-opacity:1;fill-rule:nonzero;stroke:none"
             transform="scale(1.3333333)" />
          <path
             id="path1258"
             d="m 574.898,346.008 c 0,-0.309 0,-0.34 -0.308,-0.34 -0.793,0.828 -1.942,0.828 -2.356,0.828 v 0.414 c 0.262,0 1.028,0 1.7,-0.34 v 6.731 c 0,0.457 -0.047,0.625 -1.207,0.625 h -0.415 v 0.398 c 0.458,-0.047 1.575,-0.047 2.094,-0.047 0.524,0 1.653,0 2.114,0.047 v -0.398 h -0.415 c -1.175,0 -1.207,-0.153 -1.207,-0.625 z m 6.457,3.742 c 1.055,-0.352 1.821,-1.266 1.821,-2.293 0,-1.07 -1.149,-1.789 -2.403,-1.789 -1.312,0 -2.293,0.781 -2.293,1.762 0,0.441 0.274,0.687 0.657,0.687 0.398,0 0.66,-0.293 0.66,-0.676 0,-0.64 -0.613,-0.64 -0.797,-0.64 0.398,-0.641 1.254,-0.809 1.73,-0.809 0.536,0 1.239,0.289 1.239,1.449 0,0.172 -0.016,0.918 -0.352,1.485 -0.398,0.629 -0.844,0.672 -1.164,0.672 -0.105,0.015 -0.414,0.047 -0.504,0.047 -0.105,0.015 -0.199,0.031 -0.199,0.152 0,0.152 0.094,0.152 0.305,0.152 h 0.582 c 1.054,0 1.547,0.871 1.547,2.156 0,1.758 -0.903,2.141 -1.469,2.141 -0.567,0 -1.531,-0.23 -1.988,-0.992 0.457,0.074 0.855,-0.215 0.855,-0.703 0,-0.477 -0.352,-0.735 -0.734,-0.735 -0.305,0 -0.719,0.184 -0.719,0.746 0,1.196 1.207,2.051 2.617,2.051 1.59,0 2.766,-1.191 2.766,-2.508 0,-1.07 -0.809,-2.078 -2.157,-2.355 z"
             style="fill:#000000;fill-opacity:1;fill-rule:nonzero;stroke:none"
             transform="scale(1.3333333)" />
          <path
             id="path1259"
             d="m 394.414,368.91 c -0.125,0.504 -0.152,0.61 -1.18,0.61 -0.23,0 -0.367,0 -0.367,0.246 0,0.152 0.125,0.152 0.367,0.152 h 4.301 c 2.707,0 5.258,-2.738 5.258,-5.598 0,-1.816 -1.098,-3.285 -3.043,-3.285 h -4.375 c -0.242,0 -0.379,0 -0.379,0.258 0,0.152 0.106,0.152 0.363,0.152 0.172,0 0.414,0.016 0.567,0.016 0.199,0.031 0.277,0.078 0.277,0.215 0,0.047 0,0.09 -0.047,0.246 z m 2.813,-6.972 c 0.109,-0.458 0.136,-0.489 0.703,-0.489 h 1.394 c 1.27,0 2.34,0.688 2.34,2.399 0,0.644 -0.262,2.769 -1.363,4.207 -0.367,0.472 -1.406,1.465 -2.996,1.465 h -1.469 c -0.184,0 -0.215,0 -0.293,-0.012 -0.121,-0.016 -0.168,-0.031 -0.168,-0.141 0,-0.027 0,-0.058 0.063,-0.289 z"
             style="fill:#000000;fill-opacity:1;fill-rule:nonzero;stroke:none"
             transform="scale(1.3333333)" />
          <path
             id="path1260"
             d="m 422.457,365.758 c 0,-1.039 -0.062,-2.078 -0.519,-3.039 -0.598,-1.254 -1.668,-1.453 -2.204,-1.453 -0.781,0 -1.742,0.336 -2.261,1.543 -0.43,0.902 -0.493,1.91 -0.493,2.949 0,0.98 0.063,2.14 0.582,3.137 0.567,1.054 1.516,1.312 2.157,1.312 0.703,0 1.683,-0.273 2.265,-1.512 0.411,-0.902 0.473,-1.91 0.473,-2.937 z m -2.738,4.16 c -0.504,0 -1.285,-0.32 -1.512,-1.574 -0.141,-0.782 -0.141,-1.973 -0.141,-2.739 0,-0.839 0,-1.695 0.11,-2.398 0.242,-1.547 1.207,-1.652 1.543,-1.652 0.429,0 1.285,0.23 1.531,1.515 0.121,0.731 0.121,1.711 0.121,2.535 0,0.981 0,1.852 -0.137,2.692 -0.199,1.223 -0.933,1.621 -1.515,1.621 z"
             style="fill:#000000;fill-opacity:1;fill-rule:nonzero;stroke:none"
             transform="scale(1.3333333)" />
          <path
             id="path1261"
             d="m 425.473,369.23 c 0,-0.382 -0.309,-0.687 -0.692,-0.687 -0.367,0 -0.687,0.305 -0.687,0.687 0,0.383 0.32,0.688 0.687,0.688 0.383,0 0.692,-0.305 0.692,-0.688 z"
             style="fill:#000000;fill-opacity:1;fill-rule:nonzero;stroke:none"
             transform="scale(1.3333333)" />
          <path
             id="path1262"
             d="m 430.414,361.602 c 0,-0.305 0,-0.336 -0.305,-0.336 -0.797,0.824 -1.941,0.824 -2.355,0.824 v 0.414 c 0.258,0 1.023,0 1.699,-0.336 v 6.727 c 0,0.457 -0.047,0.625 -1.211,0.625 h -0.414 v 0.398 c 0.461,-0.047 1.578,-0.047 2.098,-0.047 0.519,0 1.652,0 2.109,0.047 v -0.398 h -0.41 c -1.18,0 -1.211,-0.153 -1.211,-0.625 z m 6.5,0 c 0,-0.305 0,-0.336 -0.305,-0.336 -0.797,0.824 -1.941,0.824 -2.355,0.824 v 0.414 c 0.262,0 1.023,0 1.699,-0.336 v 6.727 c 0,0.457 -0.047,0.625 -1.211,0.625 h -0.41 v 0.398 c 0.457,-0.047 1.574,-0.047 2.094,-0.047 0.519,0 1.652,0 2.109,0.047 v -0.398 h -0.41 c -1.18,0 -1.211,-0.153 -1.211,-0.625 z m 21.664,4.156 c 0,-1.039 -0.062,-2.078 -0.519,-3.039 -0.598,-1.254 -1.668,-1.453 -2.204,-1.453 -0.781,0 -1.742,0.336 -2.265,1.543 -0.426,0.902 -0.488,1.91 -0.488,2.949 0,0.98 0.062,2.14 0.582,3.137 0.566,1.054 1.515,1.312 2.156,1.312 0.703,0 1.683,-0.273 2.265,-1.512 0.411,-0.902 0.473,-1.91 0.473,-2.937 z m -2.738,4.16 c -0.504,0 -1.285,-0.32 -1.516,-1.574 -0.136,-0.782 -0.136,-1.973 -0.136,-2.739 0,-0.839 0,-1.695 0.109,-2.398 0.242,-1.547 1.207,-1.652 1.543,-1.652 0.43,0 1.285,0.23 1.531,1.515 0.121,0.731 0.121,1.711 0.121,2.535 0,0.981 0,1.852 -0.137,2.692 -0.199,1.223 -0.933,1.621 -1.515,1.621 z"
             style="fill:#000000;fill-opacity:1;fill-rule:nonzero;stroke:none"
             transform="scale(1.3333333)" />
          <path
             id="path1263"
             d="m 461.59,369.23 c 0,-0.382 -0.305,-0.687 -0.688,-0.687 -0.367,0 -0.687,0.305 -0.687,0.687 0,0.383 0.32,0.688 0.687,0.688 0.383,0 0.688,-0.305 0.688,-0.688 z"
             style="fill:#000000;fill-opacity:1;fill-rule:nonzero;stroke:none"
             transform="scale(1.3333333)" />
          <path
             id="path1264"
             d="m 468.691,365.758 c 0,-1.039 -0.058,-2.078 -0.519,-3.039 -0.598,-1.254 -1.668,-1.453 -2.203,-1.453 -0.778,0 -1.742,0.336 -2.262,1.543 -0.43,0.902 -0.492,1.91 -0.492,2.949 0,0.98 0.062,2.14 0.582,3.137 0.566,1.054 1.515,1.312 2.156,1.312 0.703,0 1.684,-0.273 2.266,-1.512 0.414,-0.902 0.472,-1.91 0.472,-2.937 z m -2.738,4.16 c -0.504,0 -1.285,-0.32 -1.512,-1.574 -0.14,-0.782 -0.14,-1.973 -0.14,-2.739 0,-0.839 0,-1.695 0.109,-2.398 0.246,-1.547 1.207,-1.652 1.543,-1.652 0.43,0 1.285,0.23 1.531,1.515 0.121,0.731 0.121,1.711 0.121,2.535 0,0.981 0,1.852 -0.136,2.692 -0.199,1.223 -0.934,1.621 -1.516,1.621 z m 8.031,-4.129 v 0.414 c 0,3.043 -1.347,3.637 -2.109,3.637 -0.215,0 -0.918,-0.028 -1.27,-0.473 0.567,0 0.672,-0.367 0.672,-0.597 0,-0.395 -0.304,-0.594 -0.597,-0.594 -0.215,0 -0.594,0.121 -0.594,0.625 0,0.871 0.703,1.406 1.805,1.406 1.679,0 3.257,-1.773 3.257,-4.57 0,-3.485 -1.484,-4.371 -2.648,-4.371 -0.719,0 -1.344,0.226 -1.91,0.808 -0.535,0.598 -0.828,1.133 -0.828,2.11 0,1.621 1.148,2.906 2.601,2.906 0.797,0 1.317,-0.551 1.621,-1.301 z m -1.605,0.996 c -0.215,0 -0.813,0 -1.207,-0.812 -0.246,-0.489 -0.246,-1.129 -0.246,-1.774 0,-0.703 0,-1.312 0.273,-1.789 0.352,-0.656 0.844,-0.824 1.301,-0.824 0.598,0 1.027,0.441 1.254,1.023 0.152,0.414 0.199,1.239 0.199,1.836 0,1.086 -0.441,2.34 -1.574,2.34 z m 22.32,-1.027 c 0,-1.039 -0.062,-2.078 -0.519,-3.039 -0.598,-1.254 -1.668,-1.453 -2.203,-1.453 -0.782,0 -1.747,0.336 -2.266,1.543 -0.426,0.902 -0.488,1.91 -0.488,2.949 0,0.98 0.062,2.14 0.582,3.137 0.566,1.054 1.515,1.312 2.156,1.312 0.703,0 1.684,-0.273 2.262,-1.512 0.414,-0.902 0.476,-1.91 0.476,-2.937 z m -2.738,4.16 c -0.504,0 -1.285,-0.32 -1.516,-1.574 -0.136,-0.782 -0.136,-1.973 -0.136,-2.739 0,-0.839 0,-1.695 0.105,-2.398 0.246,-1.547 1.211,-1.652 1.547,-1.652 0.43,0 1.285,0.23 1.531,1.515 0.121,0.731 0.121,1.711 0.121,2.535 0,0.981 0,1.852 -0.136,2.692 -0.2,1.223 -0.934,1.621 -1.516,1.621 z"
             style="fill:#000000;fill-opacity:1;fill-rule:nonzero;stroke:none"
             transform="scale(1.3333333)" />
          <path
             id="path1265"
             d="m 497.711,369.23 c 0,-0.382 -0.305,-0.687 -0.688,-0.687 -0.367,0 -0.687,0.305 -0.687,0.687 0,0.383 0.32,0.688 0.687,0.688 0.383,0 0.688,-0.305 0.688,-0.688 z"
             style="fill:#000000;fill-opacity:1;fill-rule:nonzero;stroke:none"
             transform="scale(1.3333333)" />
          <path
             id="path1266"
             d="m 504.812,365.758 c 0,-1.039 -0.062,-2.078 -0.519,-3.039 -0.598,-1.254 -1.668,-1.453 -2.203,-1.453 -0.781,0 -1.742,0.336 -2.262,1.543 -0.43,0.902 -0.492,1.91 -0.492,2.949 0,0.98 0.062,2.14 0.582,3.137 0.566,1.054 1.516,1.312 2.156,1.312 0.703,0 1.684,-0.273 2.266,-1.512 0.41,-0.902 0.472,-1.91 0.472,-2.937 z m -2.738,4.16 c -0.504,0 -1.285,-0.32 -1.512,-1.574 -0.14,-0.782 -0.14,-1.973 -0.14,-2.739 0,-0.839 0,-1.695 0.109,-2.398 0.242,-1.547 1.207,-1.652 1.543,-1.652 0.43,0 1.285,0.23 1.531,1.515 0.122,0.731 0.122,1.711 0.122,2.535 0,0.981 0,1.852 -0.137,2.692 -0.199,1.223 -0.934,1.621 -1.516,1.621 z m 9.242,-4.16 c 0,-1.039 -0.058,-2.078 -0.519,-3.039 -0.598,-1.254 -1.668,-1.453 -2.203,-1.453 -0.778,0 -1.742,0.336 -2.262,1.543 -0.43,0.902 -0.492,1.91 -0.492,2.949 0,0.98 0.062,2.14 0.582,3.137 0.566,1.054 1.516,1.312 2.156,1.312 0.703,0 1.684,-0.273 2.266,-1.512 0.414,-0.902 0.472,-1.91 0.472,-2.937 z m -2.738,4.16 c -0.504,0 -1.285,-0.32 -1.512,-1.574 -0.14,-0.782 -0.14,-1.973 -0.14,-2.739 0,-0.839 0,-1.695 0.109,-2.398 0.246,-1.547 1.207,-1.652 1.543,-1.652 0.43,0 1.285,0.23 1.531,1.515 0.121,0.731 0.121,1.711 0.121,2.535 0,0.981 0,1.852 -0.136,2.692 -0.199,1.223 -0.934,1.621 -1.516,1.621 z m 22.242,-4.16 c 0,-1.039 -0.062,-2.078 -0.519,-3.039 -0.598,-1.254 -1.668,-1.453 -2.203,-1.453 -0.782,0 -1.746,0.336 -2.266,1.543 -0.426,0.902 -0.488,1.91 -0.488,2.949 0,0.98 0.062,2.14 0.582,3.137 0.566,1.054 1.512,1.312 2.156,1.312 0.703,0 1.684,-0.273 2.262,-1.512 0.414,-0.902 0.476,-1.91 0.476,-2.937 z m -2.738,4.16 c -0.504,0 -1.285,-0.32 -1.516,-1.574 -0.136,-0.782 -0.136,-1.973 -0.136,-2.739 0,-0.839 0,-1.695 0.105,-2.398 0.246,-1.547 1.211,-1.652 1.547,-1.652 0.426,0 1.285,0.23 1.527,1.515 0.125,0.731 0.125,1.711 0.125,2.535 0,0.981 0,1.852 -0.14,2.692 -0.196,1.223 -0.93,1.621 -1.512,1.621 z"
             style="fill:#000000;fill-opacity:1;fill-rule:nonzero;stroke:none"
             transform="scale(1.3333333)" />
          <path
             id="path1267"
             d="m 533.832,369.23 c 0,-0.382 -0.305,-0.687 -0.687,-0.687 -0.368,0 -0.688,0.305 -0.688,0.687 0,0.383 0.32,0.688 0.688,0.688 0.382,0 0.687,-0.305 0.687,-0.688 z"
             style="fill:#000000;fill-opacity:1;fill-rule:nonzero;stroke:none"
             transform="scale(1.3333333)" />
          <path
             id="path1268"
             d="m 537.078,363.984 c -0.609,-0.394 -0.656,-0.839 -0.656,-1.054 0,-0.793 0.84,-1.344 1.773,-1.344 0.95,0 1.774,0.672 1.774,1.621 0,0.734 -0.504,1.359 -1.285,1.82 z m 1.899,1.227 c 0.933,-0.477 1.574,-1.149 1.574,-2.004 0,-1.207 -1.16,-1.941 -2.34,-1.941 -1.301,0 -2.356,0.961 -2.356,2.168 0,0.23 0.016,0.812 0.567,1.425 0.137,0.168 0.625,0.489 0.949,0.703 -0.75,0.379 -1.867,1.098 -1.867,2.399 0,1.375 1.316,2.246 2.691,2.246 1.469,0 2.692,-1.082 2.692,-2.477 0,-0.457 -0.137,-1.054 -0.625,-1.589 -0.246,-0.274 -0.461,-0.411 -1.285,-0.93 z m -1.301,0.547 1.59,1.012 c 0.367,0.242 0.98,0.64 0.98,1.437 0,0.961 -0.98,1.633 -2.035,1.633 -1.133,0 -2.066,-0.809 -2.066,-1.879 0,-0.766 0.414,-1.59 1.531,-2.203 z m 5.433,3.168 1.375,-1.348 c 2.036,-1.789 2.817,-2.492 2.817,-3.789 0,-1.484 -1.18,-2.523 -2.77,-2.523 -1.469,0 -2.418,1.191 -2.418,2.351 0,0.719 0.645,0.719 0.692,0.719 0.215,0 0.672,-0.152 0.672,-0.688 0,-0.336 -0.247,-0.671 -0.688,-0.671 -0.109,0 -0.137,0 -0.168,0.015 0.289,-0.844 0.992,-1.332 1.742,-1.332 1.196,0 1.742,1.055 1.742,2.125 0,1.039 -0.64,2.067 -1.359,2.875 l -2.492,2.781 c -0.141,0.141 -0.141,0.172 -0.141,0.477 h 4.821 l 0.367,-2.266 h -0.336 c -0.063,0.399 -0.153,0.965 -0.277,1.164 -0.09,0.106 -0.95,0.106 -1.239,0.106 z m 23.832,-3.168 c 0,-1.039 -0.062,-2.078 -0.519,-3.039 -0.598,-1.254 -1.668,-1.453 -2.203,-1.453 -0.781,0 -1.746,0.336 -2.266,1.543 -0.43,0.902 -0.488,1.91 -0.488,2.949 0,0.98 0.062,2.14 0.582,3.137 0.562,1.054 1.512,1.312 2.156,1.312 0.703,0 1.68,-0.273 2.262,-1.512 0.414,-0.902 0.476,-1.91 0.476,-2.937 z m -2.738,4.16 c -0.504,0 -1.285,-0.32 -1.515,-1.574 -0.137,-0.782 -0.137,-1.973 -0.137,-2.739 0,-0.839 0,-1.695 0.105,-2.398 0.246,-1.547 1.211,-1.652 1.547,-1.652 0.426,0 1.285,0.23 1.527,1.515 0.125,0.731 0.125,1.711 0.125,2.535 0,0.981 0,1.852 -0.14,2.692 -0.199,1.223 -0.934,1.621 -1.512,1.621 z"
             style="fill:#000000;fill-opacity:1;fill-rule:nonzero;stroke:none"
             transform="scale(1.3333333)" />
          <path
             id="path1269"
             d="m 569.957,369.23 c 0,-0.382 -0.305,-0.687 -0.687,-0.687 -0.368,0 -0.688,0.305 -0.688,0.687 0,0.383 0.32,0.688 0.688,0.688 0.382,0 0.687,-0.305 0.687,-0.688 z"
             style="fill:#000000;fill-opacity:1;fill-rule:nonzero;stroke:none"
             transform="scale(1.3333333)" />
          <path
             id="path1270"
             d="m 577.055,365.758 c 0,-1.039 -0.063,-2.078 -0.52,-3.039 -0.597,-1.254 -1.668,-1.453 -2.203,-1.453 -0.781,0 -1.746,0.336 -2.266,1.543 -0.425,0.902 -0.488,1.91 -0.488,2.949 0,0.98 0.063,2.14 0.582,3.137 0.567,1.054 1.516,1.312 2.156,1.312 0.704,0 1.684,-0.273 2.262,-1.512 0.414,-0.902 0.477,-1.91 0.477,-2.937 z m -2.739,4.16 c -0.504,0 -1.285,-0.32 -1.515,-1.574 -0.137,-0.782 -0.137,-1.973 -0.137,-2.739 0,-0.839 0,-1.695 0.106,-2.398 0.246,-1.547 1.21,-1.652 1.546,-1.652 0.43,0 1.286,0.23 1.532,1.515 0.121,0.731 0.121,1.711 0.121,2.535 0,0.981 0,1.852 -0.137,2.692 -0.199,1.223 -0.934,1.621 -1.516,1.621 z m 9.243,-4.16 c 0,-1.039 -0.063,-2.078 -0.52,-3.039 -0.598,-1.254 -1.668,-1.453 -2.203,-1.453 -0.781,0 -1.742,0.336 -2.262,1.543 -0.429,0.902 -0.492,1.91 -0.492,2.949 0,0.98 0.063,2.14 0.582,3.137 0.566,1.054 1.516,1.312 2.156,1.312 0.703,0 1.684,-0.273 2.266,-1.512 0.41,-0.902 0.473,-1.91 0.473,-2.937 z m -2.739,4.16 c -0.504,0 -1.285,-0.32 -1.515,-1.574 -0.137,-0.782 -0.137,-1.973 -0.137,-2.739 0,-0.839 0,-1.695 0.109,-2.398 0.243,-1.547 1.207,-1.652 1.543,-1.652 0.43,0 1.285,0.23 1.532,1.515 0.121,0.731 0.121,1.711 0.121,2.535 0,0.981 0,1.852 -0.137,2.692 -0.199,1.223 -0.934,1.621 -1.516,1.621 z"
             style="fill:#000000;fill-opacity:1;fill-rule:nonzero;stroke:none"
             transform="scale(1.3333333)" />
          <path
             id="path1271"
             d="m 401.945,382.488 c 0.032,-0.058 0.063,-0.152 0.063,-0.183 0,-0.012 0,-0.137 -0.153,-0.137 -0.125,0 -0.14,0.078 -0.167,0.152 -0.844,1.926 -1.333,2.801 -3.551,2.801 h -1.895 c -0.183,0 -0.215,0 -0.293,-0.016 -0.137,-0.015 -0.168,-0.031 -0.168,-0.136 0,-0.031 0,-0.063 0.063,-0.293 l 0.886,-3.547 h 1.286 c 1.101,0 1.101,0.277 1.101,0.598 0,0.089 0,0.242 -0.094,0.625 -0.011,0.078 -0.031,0.109 -0.031,0.152 0,0.062 0.047,0.141 0.168,0.141 0.11,0 0.141,-0.063 0.199,-0.262 l 0.735,-3.043 c 0,-0.074 -0.059,-0.137 -0.153,-0.137 -0.121,0 -0.136,0.074 -0.183,0.231 -0.274,0.992 -0.504,1.281 -1.696,1.281 h -1.226 l 0.781,-3.133 c 0.106,-0.445 0.121,-0.504 0.703,-0.504 h 1.836 c 1.574,0 1.973,0.383 1.973,1.453 0,0.305 0,0.336 -0.059,0.688 0,0.074 -0.015,0.168 -0.015,0.226 0,0.063 0.047,0.157 0.168,0.157 0.136,0 0.152,-0.079 0.183,-0.325 l 0.258,-2.246 c 0.031,-0.351 -0.027,-0.351 -0.352,-0.351 h -6.574 c -0.261,0 -0.383,0 -0.383,0.261 0,0.137 0.122,0.137 0.368,0.137 0.472,0 0.839,0 0.839,0.242 0,0.047 0,0.078 -0.062,0.309 l -1.727,6.879 c -0.121,0.504 -0.152,0.613 -1.175,0.613 -0.215,0 -0.368,0 -0.368,0.242 0,0.153 0.122,0.153 0.368,0.153 h 6.742 c 0.308,0 0.324,-0.012 0.414,-0.211 z"
             style="fill:#000000;fill-opacity:1;fill-rule:nonzero;stroke:none"
             transform="scale(1.3333333)" />
          <path
             id="path1272"
             d="m 422.457,381.359 c 0,-1.039 -0.062,-2.082 -0.519,-3.043 -0.598,-1.254 -1.668,-1.453 -2.204,-1.453 -0.781,0 -1.742,0.336 -2.261,1.543 -0.43,0.903 -0.493,1.914 -0.493,2.953 0,0.977 0.063,2.141 0.582,3.133 0.567,1.055 1.516,1.317 2.157,1.317 0.703,0 1.683,-0.278 2.265,-1.516 0.411,-0.902 0.473,-1.91 0.473,-2.934 z m -2.738,4.157 c -0.504,0 -1.285,-0.321 -1.512,-1.575 -0.141,-0.777 -0.141,-1.972 -0.141,-2.734 0,-0.844 0,-1.699 0.11,-2.402 0.242,-1.543 1.207,-1.653 1.543,-1.653 0.429,0 1.285,0.231 1.531,1.516 0.121,0.734 0.121,1.711 0.121,2.539 0,0.977 0,1.848 -0.137,2.688 -0.199,1.226 -0.933,1.621 -1.515,1.621 z"
             style="fill:#000000;fill-opacity:1;fill-rule:nonzero;stroke:none"
             transform="scale(1.3333333)" />
          <path
             id="path1273"
             d="m 425.473,384.828 c 0,-0.383 -0.309,-0.687 -0.692,-0.687 -0.367,0 -0.687,0.304 -0.687,0.687 0,0.383 0.32,0.688 0.687,0.688 0.383,0 0.692,-0.305 0.692,-0.688 z"
             style="fill:#000000;fill-opacity:1;fill-rule:nonzero;stroke:none"
             transform="scale(1.3333333)" />
          <path
             id="path1274"
             d="m 430.414,377.199 c 0,-0.304 0,-0.336 -0.305,-0.336 -0.797,0.825 -1.941,0.825 -2.355,0.825 v 0.414 c 0.258,0 1.023,0 1.699,-0.336 v 6.726 c 0,0.461 -0.047,0.629 -1.211,0.629 h -0.414 v 0.399 c 0.461,-0.047 1.578,-0.047 2.098,-0.047 0.519,0 1.652,0 2.109,0.047 v -0.399 h -0.41 c -1.18,0 -1.211,-0.152 -1.211,-0.629 z m 7.449,4.192 v 0.41 c 0,3.043 -1.343,3.64 -2.109,3.64 -0.215,0 -0.918,-0.031 -1.27,-0.476 0.567,0 0.672,-0.367 0.672,-0.594 0,-0.398 -0.304,-0.598 -0.597,-0.598 -0.211,0 -0.594,0.122 -0.594,0.629 0,0.871 0.703,1.407 1.805,1.407 1.679,0 3.257,-1.774 3.257,-4.575 0,-3.484 -1.484,-4.371 -2.648,-4.371 -0.719,0 -1.344,0.231 -1.91,0.809 -0.535,0.598 -0.828,1.133 -0.828,2.113 0,1.617 1.148,2.903 2.601,2.903 0.797,0 1.317,-0.551 1.621,-1.297 z m -1.605,0.992 c -0.215,0 -0.813,0 -1.207,-0.809 -0.246,-0.492 -0.246,-1.133 -0.246,-1.777 0,-0.703 0,-1.313 0.273,-1.785 0.356,-0.66 0.844,-0.828 1.301,-0.828 0.598,0 1.027,0.445 1.254,1.023 0.156,0.414 0.199,1.238 0.199,1.836 0,1.086 -0.441,2.34 -1.574,2.34 z m 22.32,-1.024 c 0,-1.039 -0.062,-2.082 -0.519,-3.043 -0.598,-1.254 -1.668,-1.453 -2.204,-1.453 -0.781,0 -1.742,0.336 -2.265,1.543 -0.426,0.903 -0.488,1.914 -0.488,2.953 0,0.977 0.062,2.141 0.582,3.133 0.566,1.055 1.515,1.317 2.156,1.317 0.703,0 1.683,-0.278 2.265,-1.516 0.411,-0.902 0.473,-1.91 0.473,-2.934 z m -2.738,4.157 c -0.504,0 -1.285,-0.321 -1.516,-1.575 -0.136,-0.777 -0.136,-1.972 -0.136,-2.734 0,-0.844 0,-1.699 0.109,-2.402 0.242,-1.543 1.207,-1.653 1.543,-1.653 0.43,0 1.285,0.231 1.531,1.516 0.121,0.734 0.121,1.711 0.121,2.539 0,0.977 0,1.848 -0.137,2.688 -0.199,1.226 -0.933,1.621 -1.515,1.621 z"
             style="fill:#000000;fill-opacity:1;fill-rule:nonzero;stroke:none"
             transform="scale(1.3333333)" />
          <path
             id="path1275"
             d="m 461.59,384.828 c 0,-0.383 -0.305,-0.687 -0.688,-0.687 -0.367,0 -0.687,0.304 -0.687,0.687 0,0.383 0.32,0.688 0.687,0.688 0.383,0 0.688,-0.305 0.688,-0.688 z"
             style="fill:#000000;fill-opacity:1;fill-rule:nonzero;stroke:none"
             transform="scale(1.3333333)" />
          <path
             id="path1276"
             d="m 468.691,381.359 c 0,-1.039 -0.058,-2.082 -0.519,-3.043 -0.598,-1.254 -1.668,-1.453 -2.203,-1.453 -0.778,0 -1.742,0.336 -2.262,1.543 -0.43,0.903 -0.492,1.914 -0.492,2.953 0,0.977 0.062,2.141 0.582,3.133 0.566,1.055 1.515,1.317 2.156,1.317 0.703,0 1.684,-0.278 2.266,-1.516 0.414,-0.902 0.472,-1.91 0.472,-2.934 z m -2.738,4.157 c -0.504,0 -1.285,-0.321 -1.512,-1.575 -0.14,-0.777 -0.14,-1.972 -0.14,-2.734 0,-0.844 0,-1.699 0.109,-2.402 0.246,-1.543 1.207,-1.653 1.543,-1.653 0.43,0 1.285,0.231 1.531,1.516 0.121,0.734 0.121,1.711 0.121,2.539 0,0.977 0,1.848 -0.136,2.688 -0.199,1.226 -0.934,1.621 -1.516,1.621 z m 9.238,-4.157 c 0,-1.039 -0.058,-2.082 -0.519,-3.043 -0.594,-1.254 -1.668,-1.453 -2.203,-1.453 -0.778,0 -1.742,0.336 -2.262,1.543 -0.43,0.903 -0.488,1.914 -0.488,2.953 0,0.977 0.058,2.141 0.578,3.133 0.566,1.055 1.515,1.317 2.156,1.317 0.707,0 1.684,-0.278 2.266,-1.516 0.414,-0.902 0.472,-1.91 0.472,-2.934 z m -2.738,4.157 c -0.504,0 -1.281,-0.321 -1.512,-1.575 -0.136,-0.777 -0.136,-1.972 -0.136,-2.734 0,-0.844 0,-1.699 0.105,-2.402 0.246,-1.543 1.207,-1.653 1.543,-1.653 0.43,0 1.285,0.231 1.531,1.516 0.121,0.734 0.121,1.711 0.121,2.539 0,0.977 0,1.848 -0.136,2.688 -0.199,1.226 -0.934,1.621 -1.516,1.621 z m 22.246,-4.157 c 0,-1.039 -0.062,-2.082 -0.519,-3.043 -0.598,-1.254 -1.668,-1.453 -2.203,-1.453 -0.782,0 -1.747,0.336 -2.266,1.543 -0.426,0.903 -0.488,1.914 -0.488,2.953 0,0.977 0.062,2.141 0.582,3.133 0.566,1.055 1.515,1.317 2.156,1.317 0.703,0 1.684,-0.278 2.262,-1.516 0.414,-0.902 0.476,-1.91 0.476,-2.934 z m -2.738,4.157 c -0.504,0 -1.285,-0.321 -1.516,-1.575 -0.136,-0.777 -0.136,-1.972 -0.136,-2.734 0,-0.844 0,-1.699 0.105,-2.402 0.246,-1.543 1.211,-1.653 1.547,-1.653 0.43,0 1.285,0.231 1.531,1.516 0.121,0.734 0.121,1.711 0.121,2.539 0,0.977 0,1.848 -0.136,2.688 -0.2,1.226 -0.934,1.621 -1.516,1.621 z"
             style="fill:#000000;fill-opacity:1;fill-rule:nonzero;stroke:none"
             transform="scale(1.3333333)" />
          <path
             id="path1277"
             d="m 497.711,384.828 c 0,-0.383 -0.305,-0.687 -0.688,-0.687 -0.367,0 -0.687,0.304 -0.687,0.687 0,0.383 0.32,0.688 0.687,0.688 0.383,0 0.688,-0.305 0.688,-0.688 z"
             style="fill:#000000;fill-opacity:1;fill-rule:nonzero;stroke:none"
             transform="scale(1.3333333)" />
          <path
             id="path1278"
             d="m 502.656,377.199 c 0,-0.304 0,-0.336 -0.304,-0.336 -0.797,0.825 -1.946,0.825 -2.356,0.825 v 0.414 c 0.258,0 1.024,0 1.695,-0.336 v 6.726 c 0,0.461 -0.043,0.629 -1.207,0.629 h -0.414 v 0.399 c 0.461,-0.047 1.578,-0.047 2.098,-0.047 0.52,0 1.652,0 2.109,0.047 v -0.399 h -0.414 c -1.175,0 -1.207,-0.152 -1.207,-0.629 z m 6.457,3.746 c 1.059,-0.351 1.821,-1.269 1.821,-2.293 0,-1.07 -1.145,-1.789 -2.399,-1.789 -1.316,0 -2.297,0.782 -2.297,1.758 0,0.445 0.278,0.688 0.66,0.688 0.395,0 0.657,-0.289 0.657,-0.672 0,-0.641 -0.614,-0.641 -0.797,-0.641 0.398,-0.644 1.254,-0.812 1.73,-0.812 0.535,0 1.239,0.293 1.239,1.453 0,0.168 -0.016,0.918 -0.352,1.484 -0.398,0.625 -0.84,0.672 -1.164,0.672 -0.106,0.016 -0.41,0.047 -0.504,0.047 -0.105,0.012 -0.199,0.027 -0.199,0.152 0,0.153 0.094,0.153 0.308,0.153 h 0.579 c 1.058,0 1.546,0.871 1.546,2.156 0,1.758 -0.902,2.14 -1.468,2.14 -0.567,0 -1.532,-0.23 -1.989,-0.996 0.457,0.078 0.856,-0.215 0.856,-0.703 0,-0.472 -0.352,-0.734 -0.735,-0.734 -0.304,0 -0.718,0.183 -0.718,0.75 0,1.191 1.211,2.051 2.617,2.051 1.59,0 2.769,-1.196 2.769,-2.508 0,-1.071 -0.812,-2.082 -2.16,-2.356 z m 21.707,0.414 c 0,-1.039 -0.062,-2.082 -0.519,-3.043 -0.598,-1.254 -1.668,-1.453 -2.203,-1.453 -0.782,0 -1.746,0.336 -2.266,1.543 -0.426,0.903 -0.488,1.914 -0.488,2.953 0,0.977 0.062,2.141 0.582,3.133 0.566,1.055 1.512,1.317 2.156,1.317 0.703,0 1.684,-0.278 2.262,-1.516 0.414,-0.902 0.476,-1.91 0.476,-2.934 z m -2.738,4.157 c -0.504,0 -1.285,-0.321 -1.516,-1.575 -0.136,-0.777 -0.136,-1.972 -0.136,-2.734 0,-0.844 0,-1.699 0.105,-2.402 0.246,-1.543 1.211,-1.653 1.547,-1.653 0.426,0 1.285,0.231 1.527,1.516 0.125,0.734 0.125,1.711 0.125,2.539 0,0.977 0,1.848 -0.14,2.688 -0.196,1.226 -0.93,1.621 -1.512,1.621 z"
             style="fill:#000000;fill-opacity:1;fill-rule:nonzero;stroke:none"
             transform="scale(1.3333333)" />
          <path
             id="path1279"
             d="m 533.832,384.828 c 0,-0.383 -0.305,-0.687 -0.687,-0.687 -0.368,0 -0.688,0.304 -0.688,0.687 0,0.383 0.32,0.688 0.688,0.688 0.382,0 0.687,-0.305 0.687,-0.688 z"
             style="fill:#000000;fill-opacity:1;fill-rule:nonzero;stroke:none"
             transform="scale(1.3333333)" />
          <path
             id="path1280"
             d="m 540.934,381.359 c 0,-1.039 -0.063,-2.082 -0.52,-3.043 -0.598,-1.254 -1.668,-1.453 -2.203,-1.453 -0.781,0 -1.742,0.336 -2.266,1.543 -0.425,0.903 -0.488,1.914 -0.488,2.953 0,0.977 0.063,2.141 0.582,3.133 0.566,1.055 1.516,1.317 2.156,1.317 0.703,0 1.684,-0.278 2.266,-1.516 0.41,-0.902 0.473,-1.91 0.473,-2.934 z m -2.739,4.157 c -0.504,0 -1.285,-0.321 -1.515,-1.575 -0.137,-0.777 -0.137,-1.972 -0.137,-2.734 0,-0.844 0,-1.699 0.109,-2.402 0.243,-1.543 1.207,-1.653 1.543,-1.653 0.43,0 1.285,0.231 1.532,1.516 0.121,0.734 0.121,1.711 0.121,2.539 0,0.977 0,1.848 -0.137,2.688 -0.199,1.226 -0.934,1.621 -1.516,1.621 z m 9.243,-4.157 c 0,-1.039 -0.063,-2.082 -0.52,-3.043 -0.598,-1.254 -1.668,-1.453 -2.203,-1.453 -0.781,0 -1.742,0.336 -2.262,1.543 -0.43,0.903 -0.492,1.914 -0.492,2.953 0,0.977 0.062,2.141 0.582,3.133 0.566,1.055 1.516,1.317 2.156,1.317 0.703,0 1.684,-0.278 2.266,-1.516 0.41,-0.902 0.473,-1.91 0.473,-2.934 z m -2.739,4.157 c -0.504,0 -1.285,-0.321 -1.511,-1.575 -0.141,-0.777 -0.141,-1.972 -0.141,-2.734 0,-0.844 0,-1.699 0.109,-2.402 0.242,-1.543 1.207,-1.653 1.543,-1.653 0.43,0 1.285,0.231 1.531,1.516 0.122,0.734 0.122,1.711 0.122,2.539 0,0.977 0,1.848 -0.137,2.688 -0.199,1.226 -0.934,1.621 -1.516,1.621 z m 22.242,-4.157 c 0,-1.039 -0.062,-2.082 -0.519,-3.043 -0.598,-1.254 -1.668,-1.453 -2.203,-1.453 -0.781,0 -1.746,0.336 -2.266,1.543 -0.43,0.903 -0.488,1.914 -0.488,2.953 0,0.977 0.062,2.141 0.582,3.133 0.562,1.055 1.512,1.317 2.156,1.317 0.703,0 1.68,-0.278 2.262,-1.516 0.414,-0.902 0.476,-1.91 0.476,-2.934 z m -2.738,4.157 c -0.504,0 -1.285,-0.321 -1.515,-1.575 -0.137,-0.777 -0.137,-1.972 -0.137,-2.734 0,-0.844 0,-1.699 0.105,-2.402 0.246,-1.543 1.211,-1.653 1.547,-1.653 0.426,0 1.285,0.231 1.527,1.516 0.125,0.734 0.125,1.711 0.125,2.539 0,0.977 0,1.848 -0.14,2.688 -0.199,1.226 -0.934,1.621 -1.512,1.621 z"
             style="fill:#000000;fill-opacity:1;fill-rule:nonzero;stroke:none"
             transform="scale(1.3333333)" />
          <path
             id="path1281"
             d="m 569.957,384.828 c 0,-0.383 -0.305,-0.687 -0.687,-0.687 -0.368,0 -0.688,0.304 -0.688,0.687 0,0.383 0.32,0.688 0.688,0.688 0.382,0 0.687,-0.305 0.687,-0.688 z"
             style="fill:#000000;fill-opacity:1;fill-rule:nonzero;stroke:none"
             transform="scale(1.3333333)" />
          <path
             id="path1282"
             d="m 573.199,379.586 c -0.613,-0.398 -0.656,-0.844 -0.656,-1.055 0,-0.797 0.84,-1.347 1.773,-1.347 0.95,0 1.774,0.671 1.774,1.621 0,0.734 -0.504,1.359 -1.285,1.82 z m 1.899,1.223 c 0.933,-0.477 1.574,-1.149 1.574,-2.004 0,-1.207 -1.164,-1.942 -2.34,-1.942 -1.301,0 -2.355,0.965 -2.355,2.172 0,0.231 0.015,0.809 0.566,1.422 0.137,0.168 0.625,0.488 0.949,0.703 -0.75,0.383 -1.867,1.102 -1.867,2.399 0,1.379 1.316,2.25 2.691,2.25 1.469,0 2.692,-1.086 2.692,-2.477 0,-0.461 -0.137,-1.055 -0.625,-1.59 -0.246,-0.277 -0.461,-0.414 -1.285,-0.933 z m -1.301,0.55 1.59,1.008 c 0.367,0.246 0.98,0.641 0.98,1.438 0,0.965 -0.98,1.636 -2.035,1.636 -1.133,0 -2.066,-0.812 -2.066,-1.882 0,-0.762 0.414,-1.59 1.531,-2.2 z m 9.625,1.543 c 0,-1.543 -1.07,-2.843 -2.481,-2.843 -0.625,0 -1.175,0.214 -1.648,0.656 v -2.52 c 0.258,0.075 0.687,0.168 1.098,0.168 1.609,0 2.527,-1.195 2.527,-1.363 0,-0.074 -0.047,-0.137 -0.141,-0.137 -0.011,0 -0.043,0 -0.105,0.032 -0.262,0.121 -0.887,0.382 -1.758,0.382 -0.523,0 -1.117,-0.093 -1.73,-0.367 -0.106,-0.031 -0.137,-0.031 -0.168,-0.031 -0.121,0 -0.121,0.105 -0.121,0.305 v 3.855 c 0,0.227 0,0.336 0.183,0.336 0.09,0 0.106,-0.047 0.168,-0.125 0.137,-0.195 0.625,-0.902 1.668,-0.902 0.688,0 1.008,0.597 1.113,0.828 0.2,0.488 0.231,0.992 0.231,1.636 0,0.458 0,1.239 -0.305,1.79 -0.32,0.503 -0.797,0.839 -1.391,0.839 -0.949,0 -1.699,-0.687 -1.914,-1.453 0.032,0.016 0.079,0.016 0.215,0.016 0.43,0 0.657,-0.32 0.657,-0.629 0,-0.32 -0.227,-0.641 -0.657,-0.641 -0.183,0 -0.629,0.09 -0.629,0.688 0,1.117 0.887,2.387 2.34,2.387 1.516,0 2.848,-1.254 2.848,-2.907 z"
             style="fill:#000000;fill-opacity:1;fill-rule:nonzero;stroke:none"
             transform="scale(1.3333333)" />
          <path
             id="path1283"
             d="m 587.598,320.004 h 0.902 v -23.379 h -4.328 v 0.902 h 3.426 z m 0,7.816 h 0.902 v -7.828 h -0.902 z m 0,7.797 h 0.902 v -7.828 h -0.902 z m 0,7.801 h 0.902 v -7.828 h -0.902 z m 0,7.797 h 0.902 v -7.828 h -0.902 z m 0,7.801 h 0.902 v -7.828 h -0.902 z m 0,7.796 h 0.902 v -7.824 h -0.902 z m 0,22.477 h -3.426 v 0.887 h 4.328 v -23.375 h -0.902 z"
             style="fill:#000000;fill-opacity:1;fill-rule:nonzero;stroke:none"
             transform="scale(1.3333333)" />
        </g>
      </g>
    </g>
  </g>
</svg>
